<?xml version="1.0" encoding="utf-8"?>
<!-- Generator: Adobe Illustrator 16.0.4, SVG Export Plug-In . SVG Version: 6.00 Build 0)  -->
<!DOCTYPE svg PUBLIC "-//W3C//DTD SVG 1.1//EN" "http://www.w3.org/Graphics/SVG/1.1/DTD/svg11.dtd">
<svg version="1.1" id="Layer_1" xmlns="http://www.w3.org/2000/svg" xmlns:xlink="http://www.w3.org/1999/xlink" x="0px" y="0px"
	 width="28.167px" height="66.333px" viewBox="0 0 28.167 66.333" enable-background="new 0 0 28.167 66.333" xml:space="preserve">
<g>
	<defs>
		<rect id="SVGID_1_" x="-126.667" y="-102.062" width="284.53" height="249.728"/>
	</defs>
	<clipPath id="SVGID_2_">
		<use xlink:href="#SVGID_1_"  overflow="visible"/>
	</clipPath>
	<path clip-path="url(#SVGID_2_)" fill="#231D46" d="M12.16,63.553l-0.002-0.002C10.772,62.376,0.466,50.672,0.466,50.672
		S10.82,38.939,12.177,37.778l0.001-0.002v0.001c1.6-1.464,3.803-2.368,6.236-2.368c4.886,0,8.846,3.646,8.846,8.143
		c0,3.064-1.841,5.732-4.56,7.121c2.719,1.391,4.56,4.058,4.56,7.123c0,4.497-3.96,8.143-8.846,8.143
		C15.971,65.938,13.76,65.026,12.16,63.553L12.16,63.553z M19.499,37.104c-0.591-0.129-1.12,0.207-1.155,0.658
		c-0.034,0.451,0.337,0.842,0.808,0.944c2.19,0.477,3.213,1.241,4.286,3.21c0.23,0.423,0.711,0.669,1.134,0.508
		c0.424-0.16,0.595-0.762,0.306-1.293C23.531,38.663,22.247,37.702,19.499,37.104"/>
	<path clip-path="url(#SVGID_2_)" fill="#231D46" d="M16.101,2.922l0.002,0.002c1.385,1.175,11.691,12.879,11.691,12.879
		S17.439,27.536,16.083,28.697l-0.002,0.002v-0.001c-1.6,1.464-3.802,2.368-6.236,2.368C4.96,31.066,1,27.42,1,22.924
		c0-3.064,1.841-5.732,4.56-7.121C2.841,14.412,1,11.745,1,8.68c0-4.497,3.96-8.143,8.846-8.143
		C12.289,0.537,14.5,1.449,16.101,2.922L16.101,2.922z M8.762,29.371c0.591,0.129,1.12-0.207,1.155-0.658
		c0.034-0.451-0.337-0.842-0.808-0.944c-2.19-0.477-3.213-1.241-4.286-3.21c-0.23-0.423-0.711-0.669-1.134-0.508
		c-0.424,0.16-0.595,0.762-0.306,1.293C4.729,27.812,6.014,28.773,8.762,29.371"/>
</g>
</svg>
