<?xml version="1.0" encoding="utf-8"?>
<!-- Generator: Adobe Illustrator 16.0.4, SVG Export Plug-In . SVG Version: 6.00 Build 0)  -->
<!DOCTYPE svg PUBLIC "-//W3C//DTD SVG 1.1//EN" "http://www.w3.org/Graphics/SVG/1.1/DTD/svg11.dtd">
<svg version="1.1" id="Layer_1" xmlns="http://www.w3.org/2000/svg" xmlns:xlink="http://www.w3.org/1999/xlink" x="0px" y="0px"
	 width="322.273px" height="136.886px" viewBox="0 0 322.273 136.886" enable-background="new 0 0 322.273 136.886"
	 xml:space="preserve">
<g>
	<path fill="#EDEDED" d="M2.342,18.573h50.457v33.793H2.342V18.573z M2.342,7.078h50.457v9.154H2.342V7.078z M52.814,4.725v0.008
		h-9.518v0.004H28.747V4.733h-2.342v0.004h-14.56V4.733H9.503v0.004H0V54.72h55.142V4.725H52.814z"/>
	<rect x="9.426" y="0.789" fill="#221E45" width="2.295" height="7.971"/>
	<rect x="26.42" y="0.72" fill="#221E45" width="2.302" height="7.991"/>
	<rect x="43.295" y="0.72" fill="#221E45" width="2.302" height="7.991"/>
</g>
<g>
	<defs>
		<rect id="SVGID_1_" x="56.711" y="0.72" width="34.102" height="54"/>
	</defs>
	<clipPath id="SVGID_2_">
		<use xlink:href="#SVGID_1_"  overflow="visible"/>
	</clipPath>
	<path clip-path="url(#SVGID_2_)" fill="#E9E8E8" d="M79.678,11.861c-1.51-1.504-3.597-2.442-5.903-2.442
		c-2.31,0-4.396,0.938-5.924,2.442c-1.502,1.502-2.44,3.594-2.44,5.921c0,2.303,0.938,4.394,2.44,5.904
		c1.527,1.502,3.614,2.441,5.924,2.441c2.307,0,4.394-0.939,5.903-2.441c1.501-1.51,2.442-3.602,2.442-5.904
		C82.121,15.455,81.179,13.364,79.678,11.861 M77.722,21.733c-1.015,1.009-2.403,1.641-3.947,1.641
		c-1.565,0-2.953-0.632-3.969-1.641c-1.015-1.016-1.644-2.403-1.644-3.95c0-1.563,0.629-2.952,1.644-3.968
		c1.016-1.017,2.403-1.642,3.969-1.642c1.544,0,2.933,0.625,3.947,1.642c1.017,1.016,1.644,2.404,1.644,3.968
		C79.366,19.33,78.734,20.717,77.722,21.733"/>
	<path clip-path="url(#SVGID_2_)" fill="#E9E8E8" d="M85.81,5.722C82.745,2.631,78.463,0.72,73.775,0.72
		c-4.709,0-8.97,1.912-12.062,5.002c-3.09,3.091-5.002,7.346-5.002,12.061c0,4.768,3.067,10.516,5.766,15.535
		c0.799,1.527,1.581,2.995,2.207,4.299l7.838,16.323c0.139,0.271,0.352,0.506,0.645,0.645c0.686,0.33,1.503,0.042,1.84-0.645
		l7.835-16.323c0.625-1.304,1.406-2.771,2.23-4.299c2.674-5.025,5.739-10.767,5.739-15.535C90.811,13.068,88.901,8.813,85.81,5.722
		 M82.624,32.032c-0.816,1.54-1.599,3.022-2.267,4.395l-6.582,13.737l-6.607-13.737c-0.662-1.372-1.444-2.854-2.269-4.395
		c-2.542-4.749-5.435-10.143-5.435-14.25c0-3.951,1.606-7.528,4.203-10.108c2.579-2.595,6.157-4.202,10.107-4.202
		c3.947,0,7.503,1.607,10.104,4.202c2.58,2.58,4.179,6.157,4.179,10.108C88.058,21.89,85.166,27.283,82.624,32.032"/>
	<path clip-path="url(#SVGID_2_)" fill="#E9E8E8" d="M79.678,11.861c-1.51-1.504-3.597-2.442-5.903-2.442
		c-2.31,0-4.396,0.938-5.924,2.442c-1.502,1.502-2.44,3.594-2.44,5.921c0,2.303,0.938,4.394,2.44,5.904
		c1.527,1.502,3.614,2.441,5.924,2.441c2.307,0,4.394-0.939,5.903-2.441c1.501-1.51,2.442-3.602,2.442-5.904
		C82.121,15.455,81.179,13.364,79.678,11.861 M77.722,21.733c-1.015,1.009-2.403,1.641-3.947,1.641
		c-1.565,0-2.953-0.632-3.969-1.641c-1.015-1.016-1.644-2.403-1.644-3.95c0-1.563,0.629-2.952,1.644-3.968
		c1.016-1.017,2.403-1.642,3.969-1.642c1.544,0,2.933,0.625,3.947,1.642c1.017,1.016,1.644,2.404,1.644,3.968
		C79.366,19.33,78.734,20.717,77.722,21.733"/>
	<path clip-path="url(#SVGID_2_)" fill="#E61D7E" d="M79.678,11.861c-1.51-1.504-3.597-2.442-5.903-2.442
		c-2.31,0-4.396,0.938-5.924,2.442c-1.502,1.502-2.44,3.594-2.44,5.921c0,2.303,0.938,4.394,2.44,5.904
		c1.527,1.502,3.614,2.441,5.924,2.441c2.307,0,4.394-0.939,5.903-2.441c1.501-1.51,2.442-3.602,2.442-5.904
		C82.121,15.455,81.179,13.364,79.678,11.861 M77.722,21.733c-1.015,1.009-2.403,1.641-3.947,1.641
		c-1.565,0-2.953-0.632-3.969-1.641c-1.015-1.016-1.644-2.403-1.644-3.95c0-1.563,0.629-2.952,1.644-3.968
		c1.016-1.017,2.403-1.642,3.969-1.642c1.544,0,2.933,0.625,3.947,1.642c1.017,1.016,1.644,2.404,1.644,3.968
		C79.366,19.33,78.734,20.717,77.722,21.733"/>
</g>
<g>
	<defs>
		<rect id="SVGID_3_" x="92.953" y="0.72" width="54.001" height="54"/>
	</defs>
	<clipPath id="SVGID_4_">
		<use xlink:href="#SVGID_3_"  overflow="visible"/>
	</clipPath>
	
		<circle clip-path="url(#SVGID_4_)" fill="none" stroke="#E8E8E7" stroke-width="3" stroke-miterlimit="10" cx="119.953" cy="27.72" r="25.5"/>
	
		<path clip-path="url(#SVGID_4_)" fill="none" stroke="#E61E7E" stroke-width="3" stroke-linecap="round" stroke-miterlimit="10" d="
		M98.932,42.157c4.596,6.682,12.297,11.062,21.021,11.062c8.725,0,16.426-4.381,21.021-11.062"/>
	<path clip-path="url(#SVGID_4_)" fill="#221E45" d="M121.129,9.959c0,0.621-0.504,1.125-1.125,1.125s-1.126-0.503-1.126-1.125
		c0-0.622,0.505-1.125,1.126-1.125S121.129,9.338,121.129,9.959"/>
	<path clip-path="url(#SVGID_4_)" fill="#221E45" d="M121.129,45.583c0,0.622-0.504,1.125-1.125,1.125s-1.126-0.503-1.126-1.125
		c0-0.621,0.505-1.125,1.126-1.125S121.129,44.962,121.129,45.583"/>
	<path clip-path="url(#SVGID_4_)" fill="#221E45" d="M112.186,43.491c0,0.622-0.503,1.125-1.124,1.125
		c-0.622,0-1.126-0.503-1.126-1.125s0.504-1.125,1.126-1.125C111.683,42.366,112.186,42.869,112.186,43.491"/>
	<path clip-path="url(#SVGID_4_)" fill="#221E45" d="M120.004,26.211c0.894,0,1.622,0.728,1.622,1.622
		c0,0.895-0.729,1.622-1.622,1.622c-0.895,0-1.622-0.728-1.622-1.622C118.382,26.939,119.11,26.211,120.004,26.211 M120.004,25.462
		c-1.31,0-2.372,1.062-2.372,2.372c0,1.311,1.062,2.373,2.372,2.373s2.372-1.062,2.372-2.373
		C122.376,26.523,121.314,25.462,120.004,25.462"/>
	<path clip-path="url(#SVGID_4_)" fill="#221E45" d="M137.816,28.896c-0.62,0-1.124-0.504-1.124-1.125
		c0-0.621,0.504-1.124,1.124-1.124c0.621,0,1.126,0.503,1.126,1.124C138.942,28.393,138.437,28.896,137.816,28.896"/>
	<path clip-path="url(#SVGID_4_)" fill="#221E45" d="M100.228,28.896c-0.621,0-1.125-0.504-1.125-1.125
		c0-0.621,0.504-1.124,1.125-1.124c0.622,0,1.126,0.503,1.126,1.124C101.354,28.393,100.85,28.896,100.228,28.896"/>
	<path clip-path="url(#SVGID_4_)" fill="#221E45" d="M112.073,11.783c0.311,0.538,0.127,1.226-0.412,1.537
		c-0.539,0.31-1.227,0.126-1.537-0.412c-0.312-0.539-0.126-1.226,0.412-1.537C111.073,11.061,111.761,11.245,112.073,11.783"/>
	<path clip-path="url(#SVGID_4_)" fill="#221E45" d="M129.885,42.635c0.311,0.538,0.126,1.227-0.412,1.537
		c-0.538,0.311-1.226,0.127-1.537-0.412c-0.311-0.538-0.126-1.226,0.413-1.537C128.887,41.913,129.575,42.097,129.885,42.635"/>
	<path clip-path="url(#SVGID_4_)" fill="#221E45" d="M135.993,19.84c-0.538,0.31-1.227,0.126-1.537-0.413
		c-0.31-0.538-0.126-1.226,0.412-1.536c0.539-0.311,1.227-0.126,1.537,0.412C136.714,18.841,136.532,19.529,135.993,19.84"/>
	<path clip-path="url(#SVGID_4_)" fill="#221E45" d="M103.177,37.651c-0.538,0.312-1.226,0.127-1.537-0.411
		s-0.126-1.227,0.411-1.537c0.538-0.311,1.227-0.126,1.538,0.412C103.899,36.653,103.716,37.341,103.177,37.651"/>
	<path clip-path="url(#SVGID_4_)" fill="#221E45" d="M103.177,17.891c0.539,0.311,0.722,0.998,0.412,1.536
		c-0.312,0.539-1,0.723-1.538,0.412c-0.537-0.311-0.723-0.999-0.411-1.537C101.952,17.765,102.639,17.581,103.177,17.891"/>
	<path clip-path="url(#SVGID_4_)" fill="#221E45" d="M135.993,35.703c0.539,0.311,0.722,0.999,0.412,1.537
		c-0.311,0.539-0.998,0.723-1.537,0.411c-0.538-0.31-0.722-0.999-0.412-1.536C134.766,35.577,135.455,35.393,135.993,35.703"/>
	<path clip-path="url(#SVGID_4_)" fill="#221E45" d="M129.885,12.908c-0.311,0.538-0.998,0.722-1.536,0.412
		c-0.539-0.311-0.724-0.999-0.413-1.537c0.312-0.538,0.999-0.722,1.537-0.412C130.011,11.682,130.196,12.37,129.885,12.908"/>
	<path display="none" clip-path="url(#SVGID_4_)" fill="#221E45" d="M58.792,45.129c-0.727,1.26-2.337,1.69-3.596,0.963
		c-1.259-0.727-1.691-2.336-0.964-3.595c0.727-1.26,2.336-1.69,3.596-0.964C59.086,42.261,59.518,43.87,58.792,45.129"/>
	<path clip-path="url(#SVGID_4_)" fill="#221E45" d="M120.004,15.083c-0.343,0-0.624,0.282-0.624,0.625v9.75
		c0,0.344,0.281,0.625,0.624,0.625c0.344,0,0.625-0.281,0.625-0.625v-9.75C120.629,15.365,120.348,15.083,120.004,15.083"/>
	<path clip-path="url(#SVGID_4_)" fill="#221E45" d="M130.599,20.897c-0.105,0-0.213,0.026-0.311,0.083l-8.443,4.875
		c-0.297,0.171-0.4,0.556-0.229,0.854c0.116,0.2,0.327,0.312,0.543,0.312c0.105,0,0.214-0.027,0.311-0.083l8.444-4.875
		c0.299-0.172,0.401-0.556,0.229-0.854C131.028,21.009,130.816,20.897,130.599,20.897"/>
</g>
<g>
	<defs>
		<rect id="SVGID_5_" y="58.524" width="83.392" height="77"/>
	</defs>
	<clipPath id="SVGID_6_">
		<use xlink:href="#SVGID_5_"  overflow="visible"/>
	</clipPath>
	<path clip-path="url(#SVGID_6_)" fill="#FFFFFF" d="M0,63.448c0.418-1.01,1.186-1.369,2.255-1.338
		c1.625,0.047,3.252,0.012,4.98,0.012v-3.571h3.646v3.54h3.555v3.604h-3.518v3.597H7.273v-3.51H3.667v7.132h76.051v-7.139h-3.583
		v3.523h-3.592V58.55h3.576v3.571h3.308c0.569,0,1.143,0.032,1.709-0.006c1.07-0.072,1.838,0.323,2.257,1.333v34.854h-3.593V76.669
		H3.658v47.063h50.693v3.635h-0.917c-17.017,0-34.034-0.004-51.051,0.009c-1.099,0.001-1.985-0.24-2.383-1.384V63.448z"/>
	<rect x="47.202" y="105.669" clip-path="url(#SVGID_6_)" fill="#FFFFFF" width="3.521" height="3.524"/>
	<rect x="32.704" y="105.671" clip-path="url(#SVGID_6_)" fill="#FFFFFF" width="3.544" height="3.521"/>
	<rect x="32.704" y="112.954" clip-path="url(#SVGID_6_)" fill="#FFFFFF" width="3.544" height="3.521"/>
	<rect x="18.185" y="105.675" clip-path="url(#SVGID_6_)" fill="#FFFFFF" width="3.507" height="3.515"/>
	<rect x="18.185" y="112.958" clip-path="url(#SVGID_6_)" fill="#FFFFFF" width="3.507" height="3.514"/>
	<rect x="10.934" y="112.949" clip-path="url(#SVGID_6_)" fill="#FFFFFF" width="3.511" height="3.532"/>
	<rect x="68.935" y="83.899" clip-path="url(#SVGID_6_)" fill="#FFFFFF" width="3.524" height="3.549"/>
	<rect x="54.426" y="83.912" clip-path="url(#SVGID_6_)" fill="#FFFFFF" width="3.524" height="3.522"/>
	<rect x="47.2" y="83.912" clip-path="url(#SVGID_6_)" fill="#FFFFFF" width="3.524" height="3.522"/>
	<rect x="32.713" y="83.912" clip-path="url(#SVGID_6_)" fill="#FFFFFF" width="3.525" height="3.522"/>
	<rect x="18.163" y="91.186" clip-path="url(#SVGID_6_)" fill="#FFFFFF" width="3.55" height="3.493"/>
	<rect x="18.163" y="98.491" clip-path="url(#SVGID_6_)" fill="#FFFFFF" width="3.55" height="3.494"/>
	<rect x="39.935" y="98.465" clip-path="url(#SVGID_6_)" fill="#FFFFFF" width="3.522" height="3.547"/>
	<rect x="25.448" y="112.962" clip-path="url(#SVGID_6_)" fill="#FFFFFF" width="3.517" height="3.506"/>
	<rect x="25.458" y="98.463" clip-path="url(#SVGID_6_)" fill="#FFFFFF" width="3.496" height="3.551"/>
	<rect x="32.728" y="98.463" clip-path="url(#SVGID_6_)" fill="#FFFFFF" width="3.496" height="3.551"/>
	<rect x="32.714" y="91.172" clip-path="url(#SVGID_6_)" fill="#FFFFFF" width="3.523" height="3.521"/>
	<rect x="10.929" y="98.479" clip-path="url(#SVGID_6_)" fill="#FFFFFF" width="3.522" height="3.518"/>
	<rect x="61.627" y="91.175" clip-path="url(#SVGID_6_)" fill="#FFFFFF" width="3.55" height="3.515"/>
	<rect x="39.935" y="112.939" clip-path="url(#SVGID_6_)" fill="#FFFFFF" width="3.521" height="3.551"/>
	<rect x="47.187" y="91.182" clip-path="url(#SVGID_6_)" fill="#FFFFFF" width="3.55" height="3.501"/>
	<rect x="47.187" y="98.488" clip-path="url(#SVGID_6_)" fill="#FFFFFF" width="3.55" height="3.501"/>
	<rect x="39.938" y="83.901" clip-path="url(#SVGID_6_)" fill="#FFFFFF" width="3.516" height="3.544"/>
	<rect x="39.945" y="105.666" clip-path="url(#SVGID_6_)" fill="#FFFFFF" width="3.502" height="3.53"/>
	<rect x="25.439" y="105.68" clip-path="url(#SVGID_6_)" fill="#FFFFFF" width="3.533" height="3.505"/>
	<rect x="10.927" y="105.684" clip-path="url(#SVGID_6_)" fill="#FFFFFF" width="3.526" height="3.495"/>
	<rect x="10.923" y="91.178" clip-path="url(#SVGID_6_)" fill="#FFFFFF" width="3.532" height="3.508"/>
	<rect x="25.449" y="91.167" clip-path="url(#SVGID_6_)" fill="#FFFFFF" width="3.513" height="3.53"/>
	<rect x="68.936" y="91.167" clip-path="url(#SVGID_6_)" fill="#FFFFFF" width="3.522" height="3.53"/>
	<rect x="54.434" y="91.167" clip-path="url(#SVGID_6_)" fill="#FFFFFF" width="3.51" height="3.53"/>
	<rect x="39.931" y="91.173" clip-path="url(#SVGID_6_)" fill="#FFFFFF" width="3.53" height="3.519"/>
	<polygon clip-path="url(#SVGID_6_)" fill="#E61D7E" points="61.685,58.524 65.25,58.524 65.25,62.101 68.847,62.101 68.847,65.718 
		65.292,65.718 65.292,69.297 61.685,69.297 	"/>
	<polygon clip-path="url(#SVGID_6_)" fill="#E61D7E" points="18.161,69.305 18.161,58.559 21.759,58.559 21.759,62.123 
		25.35,62.123 25.35,65.711 21.755,65.711 21.755,69.305 	"/>
	<polygon clip-path="url(#SVGID_6_)" fill="#E61D7E" points="29.047,58.538 32.617,58.538 32.617,62.104 36.212,62.104 
		36.212,65.716 32.635,65.716 32.635,69.294 29.047,69.294 	"/>
	<polygon clip-path="url(#SVGID_6_)" fill="#E61D7E" points="47.088,62.073 47.088,65.698 43.531,65.698 43.531,69.288 
		39.943,69.288 39.943,58.542 43.479,58.542 43.479,62.073 	"/>
	<polygon clip-path="url(#SVGID_6_)" fill="#E61D7E" points="54.401,69.304 50.815,69.304 50.815,58.563 54.358,58.563 
		54.358,62.091 57.951,62.091 57.951,65.717 54.401,65.717 	"/>
	<rect x="61.64" y="83.912" clip-path="url(#SVGID_6_)" fill="#FFFFFF" width="3.524" height="3.522"/>
</g>
<g>
	<defs>
		<rect id="SVGID_7_" y="58.524" width="83.392" height="77"/>
	</defs>
	<clipPath id="SVGID_8_">
		<use xlink:href="#SVGID_7_"  overflow="visible"/>
	</clipPath>
	<path clip-path="url(#SVGID_8_)" fill="#F6DD21" d="M78.98,124.175c0.059-0.135,0.121-0.253,0.19-0.324
		c0.169-0.168,0.565-0.288,0.949-0.403c0.638-0.194,1.36-0.413,1.724-1.042c0.358-0.619,0.188-1.349,0.04-1.992
		c-0.093-0.396-0.188-0.804-0.122-1.043c0.056-0.218,0.347-0.526,0.604-0.799c0.461-0.49,0.982-1.047,0.982-1.789
		c0-0.743-0.521-1.299-0.982-1.79c-0.257-0.271-0.546-0.581-0.604-0.798c-0.064-0.239,0.03-0.648,0.122-1.043
		c0.148-0.645,0.318-1.374-0.04-1.994c-0.363-0.629-1.085-0.848-1.724-1.039c-0.384-0.117-0.778-0.237-0.947-0.404
		c-0.167-0.168-0.288-0.563-0.403-0.947c-0.192-0.637-0.412-1.359-1.041-1.723c-0.623-0.36-1.35-0.191-1.994-0.041
		c-0.395,0.091-0.803,0.186-1.042,0.122c-0.218-0.059-0.527-0.349-0.8-0.605c-0.491-0.461-1.047-0.983-1.789-0.983
		s-1.297,0.522-1.788,0.983c-0.275,0.257-0.583,0.547-0.801,0.605c-0.241,0.064-0.649-0.031-1.042-0.122
		c-0.646-0.15-1.375-0.318-1.996,0.039c-0.626,0.364-0.846,1.086-1.038,1.725c-0.117,0.384-0.236,0.779-0.404,0.947
		c-0.168,0.167-0.565,0.287-0.948,0.404c-0.638,0.193-1.361,0.411-1.724,1.04c-0.359,0.619-0.189,1.349-0.041,1.993
		c0.092,0.395,0.188,0.803,0.123,1.042c-0.057,0.218-0.348,0.527-0.603,0.799c-0.461,0.491-0.984,1.049-0.984,1.79
		c0,0.74,0.523,1.299,0.984,1.789c0.255,0.272,0.545,0.581,0.603,0.798c0.063,0.239-0.031,0.648-0.123,1.044
		c-0.148,0.644-0.318,1.373,0.041,1.993c0.363,0.629,1.086,0.848,1.724,1.041c0.383,0.115,0.778,0.235,0.947,0.403
		c0.071,0.071,0.132,0.188,0.19,0.323l-4.318,10.486c-0.1,0.241-0.039,0.519,0.151,0.695c0.118,0.111,0.271,0.169,0.426,0.169
		c0.095,0,0.19-0.021,0.28-0.068l4.672-2.336l3.447,2.298c0.158,0.104,0.358,0.131,0.539,0.074c0.182-0.059,0.326-0.196,0.393-0.375
		l1.364-3.639l1.206,3.618c0.062,0.184,0.207,0.33,0.391,0.394c0.183,0.062,0.386,0.037,0.548-0.071l3.447-2.298l4.673,2.336
		c0.091,0.046,0.186,0.067,0.279,0.067c0.156,0,0.309-0.058,0.426-0.167c0.191-0.178,0.251-0.454,0.152-0.696L78.98,124.175z
		 M71.518,129.68l-1.598,4.261l-3.094-2.062c-0.188-0.124-0.427-0.14-0.625-0.039l-3.506,1.754l3.176-7.716
		c0.15,0.255,0.334,0.484,0.606,0.643c0.624,0.361,1.352,0.19,1.996,0.041c0.394-0.092,0.801-0.188,1.042-0.123
		c0.218,0.06,0.526,0.349,0.799,0.605c0.176,0.165,0.365,0.331,0.562,0.484c0.005,0.024,0.001,0.048,0.009,0.071l0.672,2.018
		C71.545,129.641,71.527,129.656,71.518,129.68 M72.102,126.778c-0.246,0-0.611-0.344-0.934-0.646
		c-0.397-0.375-0.81-0.761-1.333-0.901c-0.168-0.045-0.338-0.063-0.509-0.063c-0.378,0-0.763,0.09-1.136,0.177
		c-0.4,0.093-0.895,0.209-1.087,0.095c-0.202-0.116-0.344-0.587-0.47-1.004c-0.16-0.531-0.325-1.079-0.716-1.469
		c-0.39-0.391-0.938-0.556-1.469-0.717c-0.417-0.125-0.887-0.267-1.004-0.468c-0.112-0.194,0.004-0.688,0.097-1.087
		c0.125-0.545,0.255-1.106,0.112-1.648c-0.142-0.522-0.527-0.934-0.901-1.332c-0.303-0.322-0.645-0.687-0.645-0.933
		c0-0.247,0.344-0.611,0.645-0.934c0.374-0.397,0.761-0.81,0.901-1.332c0.144-0.539,0.014-1.102-0.112-1.646
		c-0.093-0.398-0.208-0.894-0.097-1.086c0.117-0.201,0.588-0.343,1.006-0.47c0.53-0.16,1.077-0.326,1.468-0.716
		c0.39-0.389,0.555-0.938,0.716-1.468c0.126-0.417,0.27-0.89,0.469-1.006c0.197-0.109,0.69,0.005,1.085,0.097
		c0.543,0.127,1.104,0.257,1.647,0.112c0.522-0.14,0.935-0.526,1.333-0.9c0.322-0.303,0.687-0.646,0.933-0.646
		s0.61,0.343,0.933,0.646c0.398,0.375,0.81,0.761,1.332,0.9c0.542,0.145,1.105,0.015,1.645-0.112
		c0.398-0.094,0.895-0.208,1.087-0.095c0.201,0.116,0.344,0.587,0.47,1.004c0.159,0.53,0.325,1.079,0.716,1.469
		c0.391,0.391,0.938,0.556,1.471,0.716c0.415,0.126,0.886,0.268,1.004,0.469c0.111,0.193-0.004,0.689-0.096,1.087
		c-0.128,0.545-0.257,1.106-0.112,1.647c0.14,0.522,0.527,0.935,0.9,1.333c0.303,0.321,0.646,0.687,0.646,0.934
		c0,0.245-0.344,0.609-0.646,0.933c-0.373,0.396-0.762,0.81-0.9,1.331c-0.145,0.541-0.016,1.103,0.112,1.647
		c0.092,0.399,0.207,0.894,0.096,1.086c-0.118,0.201-0.589,0.343-1.006,0.47c-0.531,0.16-1.078,0.326-1.47,0.716
		c-0.388,0.389-0.556,0.938-0.715,1.468c-0.127,0.417-0.269,0.889-0.47,1.005c-0.192,0.112-0.688-0.004-1.085-0.096
		c-0.542-0.127-1.104-0.258-1.647-0.113c-0.522,0.141-0.934,0.527-1.333,0.901C72.712,126.435,72.348,126.778,72.102,126.778
		 M78.003,131.842c-0.2-0.102-0.438-0.087-0.625,0.038l-3.067,2.047l-1.979-5.938c0.625-0.096,1.122-0.533,1.559-0.944
		c0.273-0.257,0.583-0.546,0.801-0.605c0.242-0.062,0.648,0.031,1.042,0.123c0.646,0.149,1.374,0.319,1.994-0.04
		c0.271-0.156,0.455-0.388,0.605-0.642l3.177,7.715L78.003,131.842z M79.599,116.782c0-4.134-3.361-7.497-7.496-7.497
		c-4.134,0-7.497,3.363-7.497,7.497c0,4.135,3.363,7.496,7.497,7.496C76.238,124.278,79.599,120.917,79.599,116.782 M72.103,123.029
		c-3.445,0-6.248-2.803-6.248-6.247s2.803-6.247,6.248-6.247s6.248,2.803,6.248,6.247S75.548,123.029,72.103,123.029"/>
</g>
<g>
	<defs>
		<rect id="SVGID_9_" x="88.954" y="58.524" width="83.273" height="70"/>
	</defs>
	<clipPath id="SVGID_10_">
		<use xlink:href="#SVGID_9_"  overflow="visible"/>
	</clipPath>
	<path clip-path="url(#SVGID_10_)" fill="#231D46" d="M143.839,73.665c15.679,0,28.388,10.095,28.388,22.546
		c0,8.891-6.48,16.578-15.896,20.249c-0.656,4.266,0.641,8.778,3.896,12.064c-6.248,0-11.527-4.172-13.264-9.904
		c-1.026,0.09-2.069,0.137-3.125,0.137c-15.679,0-28.39-10.095-28.39-22.546S128.161,73.665,143.839,73.665"/>
	<path clip-path="url(#SVGID_10_)" fill="#FFFFFF" d="M117.343,58.524c-15.68,0-28.39,10.094-28.39,22.545
		c0,8.892,6.481,16.58,15.896,20.25c0.657,4.266-0.642,8.777-3.896,12.064c6.248,0,11.525-4.172,13.263-9.904
		c1.026,0.09,2.07,0.137,3.127,0.137c15.678,0,28.388-10.095,28.388-22.546C145.731,68.618,133.02,58.524,117.343,58.524"/>
</g>
<g>
	<defs>
		<rect id="SVGID_11_" x="176" y="58.524" width="84.594" height="70"/>
	</defs>
	<clipPath id="SVGID_12_">
		<use xlink:href="#SVGID_11_"  overflow="visible"/>
	</clipPath>
	<path clip-path="url(#SVGID_12_)" fill="#231D46" d="M176,63.519c0.424-1.024,1.203-1.388,2.288-1.357
		c1.649,0.047,3.3,0.012,5.052,0.012v-3.623h3.698v3.59h3.606v3.656h-3.568v3.649h-3.698v-3.561h-3.657v7.235h77.146v-7.243h-3.635
		v3.575h-3.644V58.552h3.626v3.623h3.356c0.577,0,1.159,0.032,1.734-0.007c1.084-0.073,1.863,0.328,2.288,1.352v35.358h-3.645
		V76.932H179.71v47.74h51.422v3.688h-0.93c-17.261,0-34.523-0.006-51.786,0.008c-1.114,0-2.012-0.242-2.417-1.404V63.519z"/>
	<rect x="223.881" y="106.349" clip-path="url(#SVGID_12_)" fill="#231D46" width="3.572" height="3.575"/>
	<rect x="209.174" y="106.351" clip-path="url(#SVGID_12_)" fill="#231D46" width="3.596" height="3.571"/>
	<rect x="209.174" y="113.74" clip-path="url(#SVGID_12_)" fill="#231D46" width="3.596" height="3.569"/>
	<rect x="194.446" y="106.354" clip-path="url(#SVGID_12_)" fill="#231D46" width="3.559" height="3.565"/>
	<rect x="194.446" y="113.743" clip-path="url(#SVGID_12_)" fill="#231D46" width="3.559" height="3.563"/>
	<rect x="187.092" y="113.733" clip-path="url(#SVGID_12_)" fill="#231D46" width="3.56" height="3.583"/>
	<rect x="245.927" y="84.266" clip-path="url(#SVGID_12_)" fill="#231D46" width="3.575" height="3.601"/>
	<rect x="231.209" y="84.279" clip-path="url(#SVGID_12_)" fill="#231D46" width="3.575" height="3.571"/>
	<rect x="223.879" y="84.279" clip-path="url(#SVGID_12_)" fill="#231D46" width="3.575" height="3.571"/>
	<rect x="209.184" y="84.279" clip-path="url(#SVGID_12_)" fill="#231D46" width="3.575" height="3.571"/>
	<rect x="194.424" y="91.656" clip-path="url(#SVGID_12_)" fill="#231D46" width="3.603" height="3.543"/>
	<rect x="194.424" y="99.068" clip-path="url(#SVGID_12_)" fill="#231D46" width="3.603" height="3.543"/>
	<rect x="216.51" y="99.041" clip-path="url(#SVGID_12_)" fill="#231D46" width="3.572" height="3.598"/>
	<rect x="201.814" y="113.747" clip-path="url(#SVGID_12_)" fill="#231D46" width="3.568" height="3.556"/>
	<rect x="201.825" y="99.037" clip-path="url(#SVGID_12_)" fill="#231D46" width="3.546" height="3.604"/>
	<rect x="209.2" y="99.037" clip-path="url(#SVGID_12_)" fill="#231D46" width="3.546" height="3.604"/>
	<rect x="209.186" y="91.643" clip-path="url(#SVGID_12_)" fill="#231D46" width="3.573" height="3.572"/>
	<rect x="187.085" y="99.055" clip-path="url(#SVGID_12_)" fill="#231D46" width="3.573" height="3.57"/>
	<rect x="238.514" y="91.646" clip-path="url(#SVGID_12_)" fill="#231D46" width="3.603" height="3.564"/>
	<rect x="216.51" y="113.725" clip-path="url(#SVGID_12_)" fill="#231D46" width="3.571" height="3.601"/>
	<rect x="223.866" y="91.653" clip-path="url(#SVGID_12_)" fill="#231D46" width="3.603" height="3.551"/>
	<rect x="223.866" y="99.063" clip-path="url(#SVGID_12_)" fill="#231D46" width="3.603" height="3.553"/>
	<rect x="216.512" y="84.269" clip-path="url(#SVGID_12_)" fill="#231D46" width="3.567" height="3.594"/>
	<rect x="216.521" y="106.347" clip-path="url(#SVGID_12_)" fill="#231D46" width="3.551" height="3.58"/>
	<rect x="201.806" y="106.358" clip-path="url(#SVGID_12_)" fill="#231D46" width="3.583" height="3.557"/>
	<rect x="187.083" y="106.364" clip-path="url(#SVGID_12_)" fill="#231D46" width="3.577" height="3.544"/>
	<rect x="187.081" y="91.649" clip-path="url(#SVGID_12_)" fill="#231D46" width="3.584" height="3.559"/>
	<rect x="201.816" y="91.638" clip-path="url(#SVGID_12_)" fill="#231D46" width="3.564" height="3.582"/>
	<rect x="245.929" y="91.638" clip-path="url(#SVGID_12_)" fill="#231D46" width="3.573" height="3.582"/>
	<rect x="231.218" y="91.638" clip-path="url(#SVGID_12_)" fill="#231D46" width="3.56" height="3.582"/>
	<rect x="216.505" y="91.643" clip-path="url(#SVGID_12_)" fill="#231D46" width="3.581" height="3.57"/>
	<polygon clip-path="url(#SVGID_12_)" fill="#FFFFFF" points="238.574,58.524 242.19,58.524 242.19,62.153 245.838,62.153 
		245.838,65.822 242.232,65.822 242.232,69.453 238.574,69.453 	"/>
	<polygon clip-path="url(#SVGID_12_)" fill="#FFFFFF" points="194.422,69.461 194.422,58.56 198.073,58.56 198.073,62.175 
		201.715,62.175 201.715,65.815 198.069,65.815 198.069,69.461 	"/>
	<polygon clip-path="url(#SVGID_12_)" fill="#FFFFFF" points="205.465,58.538 209.087,58.538 209.087,62.156 212.734,62.156 
		212.734,65.82 209.106,65.82 209.106,69.451 205.465,69.451 	"/>
	<polygon clip-path="url(#SVGID_12_)" fill="#FFFFFF" points="223.767,62.124 223.767,65.802 220.158,65.802 220.158,69.444 
		216.519,69.444 216.519,58.542 220.105,58.542 220.105,62.124 	"/>
	<polygon clip-path="url(#SVGID_12_)" fill="#FFFFFF" points="231.185,69.46 227.547,69.46 227.547,58.564 231.141,58.564 
		231.141,62.143 234.787,62.143 234.787,65.821 231.185,65.821 	"/>
	<rect x="238.528" y="84.279" clip-path="url(#SVGID_12_)" fill="#231D46" width="3.575" height="3.571"/>
	<polygon clip-path="url(#SVGID_12_)" fill="#F6DD21" points="252.916,121.083 252.916,128.524 246.405,128.524 246.405,121.083 
		238.965,121.083 238.965,114.574 246.405,114.574 246.405,107.135 252.916,107.135 252.916,114.574 260.354,114.574 
		260.354,121.083 	"/>
</g>
<g>
	<g>
		<defs>
			<rect id="SVGID_13_" x="276.067" y="58.524" width="44.206" height="70"/>
		</defs>
		<clipPath id="SVGID_14_">
			<use xlink:href="#SVGID_13_"  overflow="visible"/>
		</clipPath>
		<path clip-path="url(#SVGID_14_)" fill="#4F4A6B" d="M313.789,65.009c-3.975-4.008-9.521-6.484-15.602-6.484
			c-6.104,0-11.628,2.477-15.636,6.484c-4.006,4.004-6.484,9.52-6.484,15.633c0,6.18,3.977,13.635,7.475,20.139
			c1.037,1.98,2.049,3.883,2.861,5.572l10.161,21.16c0.18,0.352,0.453,0.656,0.836,0.836c0.887,0.428,1.947,0.053,2.385-0.836
			l10.154-21.16c0.811-1.689,1.824-3.592,2.893-5.572c3.467-6.514,7.439-13.959,7.439-20.139
			C320.271,74.529,317.794,69.013,313.789,65.009 M309.658,99.114c-1.059,1.996-2.072,3.918-2.938,5.695l-8.533,17.811
			l-8.565-17.811c-0.859-1.777-1.871-3.699-2.941-5.695c-3.295-6.158-7.043-13.148-7.043-18.473c0-5.121,2.08-9.757,5.447-13.101
			c3.342-3.366,7.983-5.448,13.103-5.448s9.725,2.082,13.1,5.448c3.344,3.344,5.416,7.98,5.416,13.101
			C316.703,85.966,312.955,92.956,309.658,99.114"/>
		<path clip-path="url(#SVGID_14_)" fill="#4F4A6B" d="M305.841,72.966c-1.959-1.949-4.662-3.166-7.654-3.166
			c-2.994,0-5.699,1.217-7.679,3.166c-1.947,1.947-3.164,4.658-3.164,7.675c0,2.984,1.217,5.695,3.164,7.652
			c1.979,1.949,4.685,3.164,7.679,3.164c2.992,0,5.695-1.215,7.654-3.164c1.945-1.957,3.164-4.668,3.164-7.652
			C309.005,77.624,307.787,74.914,305.841,72.966 M303.306,85.763c-1.316,1.307-3.117,2.127-5.119,2.127
			c-2.027,0-3.826-0.82-5.143-2.127c-1.318-1.318-2.132-3.117-2.132-5.121c0-2.027,0.813-3.828,2.132-5.144
			c1.316-1.318,3.115-2.129,5.143-2.129c2.002,0,3.803,0.811,5.119,2.129c1.316,1.316,2.129,3.117,2.129,5.144
			C305.435,82.646,304.617,84.444,303.306,85.763"/>
	</g>
	<g>
		<defs>
			<rect id="SVGID_15_" x="267.198" y="89.913" width="22.103" height="34.998"/>
		</defs>
		<clipPath id="SVGID_16_">
			<use xlink:href="#SVGID_15_"  overflow="visible"/>
		</clipPath>
		<path clip-path="url(#SVGID_16_)" fill="#F4DE21" d="M286.058,93.155c-1.987-2.004-4.761-3.242-7.801-3.242
			c-3.052,0-5.813,1.238-7.817,3.242c-2.003,2.002-3.242,4.76-3.242,7.816c0,3.09,1.988,6.816,3.737,10.068
			c0.519,0.99,1.024,1.941,1.431,2.785l5.08,10.58c0.09,0.176,0.227,0.328,0.418,0.418c0.443,0.215,0.974,0.027,1.192-0.418
			l5.077-10.58c0.405-0.844,0.912-1.795,1.446-2.785c1.733-3.258,3.72-6.979,3.72-10.068
			C289.299,97.915,288.061,95.157,286.058,93.155 M283.993,110.206c-0.529,0.998-1.036,1.959-1.469,2.848l-4.267,8.906l-4.282-8.906
			c-0.43-0.889-0.936-1.85-1.471-2.848c-1.647-3.078-3.521-6.572-3.521-9.234c0-2.561,1.04-4.879,2.724-6.551
			c1.671-1.684,3.991-2.725,6.551-2.725s4.862,1.041,6.55,2.725c1.672,1.672,2.708,3.99,2.708,6.551
			C287.515,103.634,285.641,107.128,283.993,110.206"/>
		<path clip-path="url(#SVGID_16_)" fill="#F4DE21" d="M282.084,97.134c-0.979-0.975-2.331-1.584-3.827-1.584
			c-1.497,0-2.85,0.609-3.839,1.584c-0.974,0.973-1.582,2.328-1.582,3.838c0,1.492,0.608,2.848,1.582,3.826
			c0.989,0.975,2.342,1.582,3.839,1.582c1.496,0,2.848-0.607,3.827-1.582c0.973-0.979,1.582-2.334,1.582-3.826
			C283.667,99.462,283.057,98.106,282.084,97.134 M280.817,103.532c-0.658,0.652-1.559,1.062-2.56,1.062
			c-1.014,0-1.913-0.41-2.571-1.062c-0.659-0.66-1.065-1.559-1.065-2.561c0-1.014,0.406-1.914,1.065-2.572
			c0.658-0.66,1.558-1.064,2.571-1.064c1.001,0,1.901,0.404,2.56,1.064c0.658,0.658,1.064,1.559,1.064,2.572
			C281.881,101.974,281.472,102.872,280.817,103.532"/>
	</g>
</g>
</svg>
