<?xml version="1.0" encoding="utf-8"?>
<!-- Generator: Adobe Illustrator 16.0.4, SVG Export Plug-In . SVG Version: 6.00 Build 0)  -->
<!DOCTYPE svg PUBLIC "-//W3C//DTD SVG 1.1//EN" "http://www.w3.org/Graphics/SVG/1.1/DTD/svg11.dtd">
<svg version="1.1" id="Layer_1" xmlns="http://www.w3.org/2000/svg" xmlns:xlink="http://www.w3.org/1999/xlink" x="0px" y="0px"
	 width="284.53px" height="249.728px" viewBox="0 0 284.53 249.728" enable-background="new 0 0 284.53 249.728"
	 xml:space="preserve">
<g>
	<defs>
		<rect id="SVGID_1_" width="284.53" height="249.728"/>
	</defs>
	<clipPath id="SVGID_2_">
		<use xlink:href="#SVGID_1_"  overflow="visible"/>
	</clipPath>
	<path clip-path="url(#SVGID_2_)" fill="#E61D7E" d="M262.307,140.741l-0.017,0.019c-10.951,12.91-120.03,108.969-120.03,108.969
		S32.896,153.227,22.075,140.577l-0.01-0.005h0.003C8.428,125.666,0,105.128,0,82.448C0,36.915,33.973,0,75.881,0
		c28.566,0,53.434,17.158,66.378,42.495C155.211,17.158,180.075,0,208.642,0c41.912,0,75.888,36.914,75.888,82.448
		c0,22.771-8.497,43.375-22.229,58.292H262.307z M15.792,72.342c-1.195,5.507,1.927,10.439,6.134,10.765
		c4.204,0.326,7.851-3.135,8.807-7.522c4.438-20.42,11.569-29.945,29.911-39.949c3.944-2.15,6.241-6.623,4.741-10.565
		c-1.496-3.948-7.102-5.549-12.049-2.854C30.322,34.763,21.36,46.729,15.792,72.342"/>
</g>
</svg>
