<?xml version="1.0" encoding="utf-8"?>
<!-- Generator: Adobe Illustrator 16.0.4, SVG Export Plug-In . SVG Version: 6.00 Build 0)  -->
<!DOCTYPE svg PUBLIC "-//W3C//DTD SVG 1.1//EN" "http://www.w3.org/Graphics/SVG/1.1/DTD/svg11.dtd">
<svg version="1.1" id="Layer_1" xmlns="http://www.w3.org/2000/svg" xmlns:xlink="http://www.w3.org/1999/xlink" x="0px" y="0px"
	 width="35px" height="35px" viewBox="0 0 35 35" enable-background="new 0 0 35 35" xml:space="preserve">
<g>
	<defs>
		<rect id="SVGID_1_" width="35" height="35"/>
	</defs>
	<clipPath id="SVGID_2_">
		<use xlink:href="#SVGID_1_"  overflow="visible"/>
	</clipPath>
	<path clip-path="url(#SVGID_2_)" fill="#E51D7E" d="M24.573,0H10.427C4.677,0,0,4.677,0,10.427v14.147C0,30.323,4.677,35,10.427,35
		h14.146C30.323,35,35,30.323,35,24.574V10.427C35,4.677,30.323,0,24.573,0 M31.479,24.574c0,3.813-3.092,6.905-6.906,6.905H10.427
		c-3.814,0-6.906-3.092-6.906-6.905V10.427c0-3.814,3.092-6.906,6.906-6.906h14.146c3.814,0,6.906,3.092,6.906,6.906V24.574z"/>
	<path clip-path="url(#SVGID_2_)" fill="#E51D7E" d="M17.5,8.448c-4.991,0-9.052,4.061-9.052,9.052s4.061,9.052,9.052,9.052
		s9.052-4.061,9.052-9.052S22.491,8.448,17.5,8.448 M17.5,23.031c-3.055,0-5.531-2.476-5.531-5.531c0-3.055,2.477-5.531,5.531-5.531
		s5.531,2.477,5.531,5.531C23.031,20.555,20.555,23.031,17.5,23.031"/>
	<path clip-path="url(#SVGID_2_)" fill="#E51D7E" d="M26.57,6.347c1.198,0,2.169,0.971,2.169,2.169c0,1.198-0.971,2.169-2.169,2.169
		c-1.198,0-2.169-0.971-2.169-2.169C24.401,7.318,25.372,6.347,26.57,6.347"/>
</g>
</svg>
