<?xml version="1.0" encoding="utf-8"?>
<!-- Generator: Adobe Illustrator 16.0.4, SVG Export Plug-In . SVG Version: 6.00 Build 0)  -->
<!DOCTYPE svg PUBLIC "-//W3C//DTD SVG 1.1//EN" "http://www.w3.org/Graphics/SVG/1.1/DTD/svg11.dtd">
<svg version="1.1" id="Layer_1" xmlns="http://www.w3.org/2000/svg" xmlns:xlink="http://www.w3.org/1999/xlink" x="0px" y="0px"
	 width="134px" height="270.266px" viewBox="0 0 134 270.266" enable-background="new 0 0 134 270.266" xml:space="preserve">
<g>
	<path fill="#FFFFFF" d="M23.141,65.376c0.425-0.501,0.827-0.97,1.225-1.442c2.632-3.126,5.261-6.253,7.9-9.375
		c0.099-0.117,0.283-0.23,0.429-0.231c2.061-0.014,4.123-0.008,6.184-0.006c0.045,0,0.091,0.011,0.223,0.03
		C33.688,62.473,28.3,70.556,22.875,78.693c-5.641-8.058-11.247-16.067-16.9-24.143h0.444c3.021,0,6.043,0.005,9.065-0.006
		c0.303-0.002,0.482,0.085,0.653,0.344c2.244,3.387,4.5,6.765,6.754,10.145C22.962,65.137,23.04,65.237,23.141,65.376"/>
	<path fill="#FFFFFF" d="M61.868,19.506c-1.479,2.263-2.957,4.525-4.435,6.788c-3.539,5.418-7.077,10.837-10.617,16.255
		c-2.33,3.565-4.662,7.131-7,10.691c-0.07,0.107-0.228,0.223-0.346,0.224c-2.049,0.013-4.098,0.008-6.147,0.006
		c-0.021,0-0.043-0.011-0.124-0.035c9.546-11.341,19.076-22.662,28.606-33.983C61.827,19.471,61.848,19.489,61.868,19.506"/>
	<path fill="#FFFFFF" d="M8.099,34.82c-2.354-0.226-4.617-0.443-6.918-0.664c0.094-0.979,0.186-1.938,0.283-2.96
		c3.792,0.362,7.567,0.722,11.394,1.087c-0.063,0.7-0.181,1.383-0.17,2.064c0.012,0.72-0.341,1.084-0.915,1.438
		c-2.11,1.303-4.187,2.658-6.276,3.994c-0.096,0.062-0.19,0.128-0.369,0.25c2.361,0.228,4.632,0.446,6.934,0.667
		c-0.096,0.996-0.188,1.957-0.285,2.96c-3.8-0.364-7.577-0.724-11.395-1.089c0.063-0.702,0.184-1.375,0.17-2.046
		c-0.015-0.752,0.369-1.119,0.962-1.484c2.102-1.293,4.168-2.643,6.248-3.973C7.854,35.005,7.94,34.936,8.099,34.82"/>
	<path fill="#FFFFFF" d="M2.781,26.566c0.48-0.918,0.947-1.818,1.427-2.711c0.035-0.063,0.169-0.113,0.251-0.104
		c1.501,0.151,3.001,0.312,4.501,0.471c0.882,0.093,1.764,0.187,2.74,0.29c-0.471-0.552-0.883-1.038-1.298-1.521
		c-1.126-1.316-2.257-2.629-3.376-3.951c-0.077-0.091-0.138-0.286-0.094-0.376c0.441-0.889,0.906-1.766,1.396-2.708
		c0.283,0.344,0.539,0.653,0.793,0.964c2.305,2.817,4.609,5.635,6.92,8.447c0.142,0.172,0.163,0.292,0.053,0.488
		c-0.275,0.488-0.538,0.985-0.78,1.491c-0.106,0.222-0.232,0.31-0.483,0.287c-1.223-0.114-2.447-0.213-3.671-0.318
		c-1.515-0.129-3.03-0.26-4.545-0.387c-1.201-0.101-2.402-0.198-3.603-0.299C2.946,26.621,2.881,26.593,2.781,26.566"/>
	<path fill="#FFFFFF" d="M52.432,10.952c-0.772-0.115-1.491-0.204-2.2-0.345c-0.151-0.03-0.3-0.231-0.39-0.388
		c-1.025-1.797-2.038-3.601-3.055-5.402c-0.065-0.116-0.135-0.231-0.254-0.435c-0.288,1.905-0.559,3.7-0.838,5.554
		c-0.79-0.118-1.565-0.233-2.375-0.354c0.461-3.065,0.917-6.087,1.375-9.136c0.761,0.115,1.499,0.217,2.232,0.347
		c0.107,0.019,0.221,0.154,0.282,0.263c1.077,1.889,2.146,3.782,3.216,5.674c0.034,0.059,0.069,0.118,0.183,0.18
		c0.273-1.798,0.546-3.595,0.826-5.446c0.795,0.118,1.571,0.233,2.374,0.352C53.347,4.87,52.892,7.892,52.432,10.952"/>
	<path fill="#FFFFFF" d="M64.942,9.479c-0.924-0.091-1.713-0.168-2.487-0.245c-0.034-0.35-0.032-0.667-0.101-0.969
		c-0.225-0.979-1.276-1.65-2.315-1.5c-1.812,0.26-3.13,2.693-2.355,4.346c0.427,0.91,1.59,1.546,2.418,1.257
		c0.366-0.128,0.679-0.411,1.102-0.678c-0.397-0.214-0.669-0.362-0.942-0.509c-0.277-0.15-0.555-0.298-0.883-0.474
		c0.292-0.553,0.577-1.092,0.877-1.659c1.403,0.747,2.783,1.481,4.21,2.241c-0.444,0.804-0.891,1.576-1.599,2.157
		c-1.708,1.405-3.893,1.42-5.799,0.046c-2.326-1.676-2.719-4.521-0.961-6.961c1.359-1.886,3.605-2.497,5.803-1.56
		c1.272,0.542,2.322,1.339,2.73,2.733C64.803,8.256,64.838,8.842,64.942,9.479"/>
	<path fill="#FFFFFF" d="M75.5,17.073c0.375,0.643,0.735,1.244,1.071,1.859c0.053,0.099,0.032,0.271-0.013,0.386
		c-0.745,1.89-1.501,3.776-2.253,5.664c-0.046,0.115-0.087,0.232-0.169,0.453c1.6-0.931,3.109-1.808,4.654-2.707
		c0.391,0.669,0.772,1.32,1.166,1.993c-2.559,1.49-5.102,2.971-7.669,4.467c-0.376-0.644-0.749-1.263-1.097-1.895
		c-0.048-0.086,0-0.247,0.043-0.357c0.748-1.889,1.502-3.775,2.254-5.663c0.047-0.115,0.088-0.233,0.168-0.447
		c-1.599,0.929-3.115,1.811-4.661,2.709c-0.388-0.665-0.764-1.308-1.164-1.994C70.387,20.052,72.929,18.572,75.5,17.073"/>
	<path fill="#FFFFFF" d="M23.711,15.311c-0.037-0.839-0.074-1.664-0.108-2.438c0.458,0,0.888,0.017,1.316-0.004
		c0.66-0.031,1.264-0.23,1.752-0.698c0.358-0.343,0.459-0.762,0.296-1.144c-0.154-0.359-0.431-0.591-0.817-0.539
		c-0.715,0.098-1.423,0.251-2.133,0.387c-0.848,0.162-1.692,0.239-2.401-0.381c-1.445-1.261-2.138-3.901,0.099-5.598
		c1.072-0.813,2.33-1.167,3.666-1.246c0.043-0.003,0.088,0.018,0.157,0.032c0.044,0.782,0.088,1.559,0.133,2.365
		c-0.332,0-0.647-0.021-0.958,0.004c-0.503,0.041-0.959,0.218-1.315,0.587c-0.275,0.285-0.433,0.623-0.27,1.021
		c0.166,0.403,0.532,0.496,0.906,0.441c0.634-0.093,1.259-0.241,1.888-0.367c2.143-0.43,3.389,0.636,3.841,2.815
		c0.308,1.488-0.405,2.61-1.548,3.484C26.895,15.041,25.394,15.448,23.711,15.311"/>
	<path fill="#FFFFFF" d="M23.532,16.866c-1.388,1.357-2.803,2.739-4.219,4.121c-0.023,0.023-0.059,0.034-0.106,0.061
		c-2.495-2.531-4.989-5.062-7.473-7.583c1.359-1.346,2.786-2.76,4.185-4.146c0.493,0.496,1.041,1.047,1.623,1.633
		c-0.723,0.695-1.504,1.447-2.281,2.194c0.461,0.451,0.868,0.848,1.272,1.242c0.703-0.696,1.432-1.418,2.167-2.146
		c0.554,0.573,1.09,1.126,1.668,1.725c-0.705,0.666-1.45,1.369-2.172,2.051c0.495,0.494,0.913,0.911,1.342,1.34
		c0.731-0.734,1.496-1.502,2.244-2.254C22.361,15.686,22.902,16.231,23.532,16.866"/>
	<path fill="#FFFFFF" d="M82.556,46.529c0.001,2.236-1.271,4.072-3.246,4.661c-2.617,0.78-5.739-0.902-5.818-4.239
		c-0.047-1.949,0.702-3.541,2.469-4.48C78.741,40.993,82.551,42.788,82.556,46.529 M75.648,46.676c0,1.323,1.062,2.386,2.381,2.387
		c1.296,0,2.386-1.099,2.382-2.403c-0.003-1.312-1.078-2.379-2.396-2.379C76.696,44.283,75.647,45.343,75.648,46.676"/>
	<path fill="#FFFFFF" d="M59.138,67.888c0.499-0.387,0.968-0.771,1.463-1.12c0.106-0.075,0.309-0.069,0.451-0.033
		c1.767,0.439,3.53,0.89,5.294,1.337c0.043,0.011,0.088,0.014,0.19,0.03c-0.967-1.253-1.903-2.463-2.871-3.717
		c0.528-0.411,1.047-0.815,1.595-1.242c1.593,2.056,3.165,4.086,4.758,6.144c-0.508,0.392-1,0.783-1.51,1.152
		c-0.08,0.058-0.243,0.035-0.357,0.006c-1.755-0.438-3.506-0.884-5.26-1.327c-0.055-0.015-0.113-0.019-0.27-0.045
		c0.985,1.276,1.919,2.486,2.869,3.716c-0.53,0.412-1.046,0.812-1.597,1.24C62.312,71.987,60.741,69.958,59.138,67.888"/>
	<rect y="46.282" fill="#FFFFFF" width="12.17" height="3.113"/>
	<path fill="#FFFFFF" d="M73.983,65.252c-0.426,0.582-0.826,1.128-1.232,1.681c-0.059-0.023-0.106-0.033-0.142-0.059
		c-1.292-0.948-2.577-1.908-3.879-2.844c-1.664-1.196-1.793-3.184-0.717-4.745c0.612-0.888,1.387-1.545,2.484-1.747
		c0.672-0.124,1.293,0.049,1.836,0.412c1,0.67,1.969,1.387,2.947,2.09c0.54,0.389,1.073,0.788,1.64,1.206
		c-0.412,0.563-0.816,1.114-1.244,1.698c-0.181-0.126-0.352-0.242-0.518-0.363c-1.134-0.828-2.259-1.668-3.405-2.479
		c-0.268-0.19-0.592-0.35-0.911-0.409c-0.555-0.104-1.11,0.267-1.376,0.824c-0.259,0.542-0.203,1.126,0.232,1.519
		c0.458,0.416,0.964,0.778,1.461,1.148C72.089,63.873,73.026,64.552,73.983,65.252"/>
	<path fill="#FFFFFF" d="M33.429,11.469c-0.716-2.507-1.423-4.981-2.135-7.475c-0.687,0.194-1.335,0.377-2.023,0.572
		c-0.201-0.701-0.398-1.39-0.608-2.119c2.196-0.626,4.367-1.246,6.59-1.88c0.199,0.693,0.397,1.381,0.608,2.116
		c-0.692,0.202-1.357,0.395-2.065,0.602c0.708,2.489,1.412,4.96,2.126,7.47C35.083,10.995,34.28,11.225,33.429,11.469"/>
	<path fill="#FFFFFF" d="M81.922,31.708c0.097,0.775,0.199,1.492,0.263,2.211c0.009,0.107-0.139,0.276-0.256,0.34
		c-1.401,0.773-2.81,1.532-4.216,2.295c-0.09,0.049-0.179,0.103-0.344,0.199c0.581,0.157,1.09,0.296,1.6,0.431
		c1.162,0.308,2.325,0.609,3.485,0.924c0.105,0.028,0.259,0.127,0.271,0.21c0.105,0.726,0.183,1.456,0.275,2.234
		c-0.944-0.27-1.837-0.522-2.729-0.78c-1.938-0.559-3.875-1.123-5.815-1.678c-0.225-0.063-0.355-0.148-0.371-0.411
		c-0.026-0.419-0.116-0.833-0.141-1.252c-0.006-0.094,0.122-0.232,0.223-0.291c1.538-0.888,3.083-1.765,4.625-2.646
		C79.816,32.912,80.84,32.326,81.922,31.708"/>
	<path fill="#FFFFFF" d="M38.518,75.002C37.75,74,37.004,73.03,36.207,71.99c0.664,0,1.256,0.033,1.842-0.011
		c0.435-0.033,0.672,0.127,0.884,0.491c0.394,0.675,0.838,1.323,1.264,1.98c0.06,0.093,0.13,0.178,0.249,0.34v-2.771h1.888v7.338
		c-0.022,0.011-0.052,0.04-0.081,0.04c-1.135-0.012-2.271,0.009-3.403-0.052c-1.045-0.057-1.855-0.951-1.909-1.998
		C36.877,76.093,37.295,75.454,38.518,75.002 M40.435,76.078c-0.554-0.003-1.075-0.031-1.413,0.478
		c-0.183,0.274-0.162,0.703,0.051,0.956c0.36,0.428,0.848,0.417,1.361,0.394V76.078z"/>
	<path fill="#FFFFFF" d="M30.392,78.95c0.253-0.495,0.497-0.971,0.708-1.382c0.437,0.138,0.837,0.284,1.249,0.383
		c0.145,0.036,0.351,0.003,0.468-0.083c0.165-0.121,0.365-0.312,0.377-0.485c0.012-0.169-0.17-0.377-0.312-0.523
		c-0.097-0.101-0.269-0.132-0.412-0.181c-0.276-0.095-0.556-0.176-0.833-0.269c-1.406-0.464-1.733-1.368-1.474-2.675
		c0.182-0.916,0.758-1.519,1.661-1.765c1.332-0.364,2.562-0.106,3.722,0.67c-0.274,0.517-0.54,1.019-0.805,1.521
		c-0.308-0.184-0.587-0.375-0.887-0.524c-0.386-0.192-0.797-0.264-1.224-0.129c-0.307,0.096-0.507,0.291-0.531,0.622
		c-0.022,0.314,0.165,0.508,0.434,0.612c0.38,0.146,0.769,0.272,1.156,0.401c1.182,0.392,1.618,0.966,1.557,2.053
		c-0.069,1.208-0.757,2.065-1.847,2.299C32.498,79.686,31.235,79.464,30.392,78.95"/>
	<path fill="#FFFFFF" d="M38.971,10.183c-0.314-3.327-0.625-6.615-0.937-9.933c0.87-0.084,1.691-0.164,2.578-0.25
		c0.312,3.302,0.623,6.586,0.938,9.933C40.69,10.016,39.86,10.097,38.971,10.183"/>
	<path fill="#FFFFFF" d="M54.839,77.653c-1.377,0.36-2.706,0.708-4.067,1.064c-0.139-0.525-0.271-1.029-0.416-1.576
		c0.728-0.195,1.442-0.386,2.2-0.588c-0.103-0.392-0.201-0.767-0.307-1.171c-0.703,0.182-1.368,0.353-2.081,0.538
		c-0.138-0.518-0.272-1.029-0.417-1.576c0.704-0.188,1.376-0.367,2.082-0.555c-0.102-0.396-0.199-0.774-0.311-1.211
		c-0.73,0.185-1.447,0.367-2.206,0.559c-0.139-0.519-0.274-1.022-0.42-1.57c1.348-0.354,2.686-0.706,4.07-1.069
		C53.588,72.876,54.208,75.244,54.839,77.653"/>
	<path fill="#FFFFFF" d="M44.123,77.822c0.771-0.069,1.5-0.134,2.265-0.203c-0.034-0.418-0.064-0.798-0.097-1.211
		c-0.728,0.059-1.421,0.113-2.15,0.172c-0.043-0.541-0.085-1.061-0.129-1.618c0.715-0.064,1.397-0.126,2.132-0.193
		c-0.03-0.403-0.06-0.802-0.094-1.254c-0.761,0.062-1.5,0.122-2.272,0.184c-0.047-0.534-0.094-1.063-0.143-1.623
		c1.406-0.12,2.777-0.236,4.186-0.356c0.209,2.438,0.417,4.868,0.631,7.362c-1.387,0.12-2.766,0.239-4.18,0.361
		C44.221,78.893,44.173,78.374,44.123,77.822"/>
	<path fill="#FFFFFF" d="M72.485,51.507c2.5,1.09,4.968,2.167,7.459,3.253c-0.287,0.656-0.561,1.283-0.848,1.94
		c-1.94-0.845-3.853-1.678-5.802-2.528c-0.338,0.768-0.67,1.522-1.021,2.314c-0.548-0.237-1.077-0.467-1.648-0.714
		C71.25,54.342,71.862,52.937,72.485,51.507"/>
	<path fill="#FFFFFF" d="M59.542,74.273c0.507-0.227,0.991-0.444,1.493-0.668c0.242,0.527,0.474,1.034,0.713,1.559
		c-1.615,0.739-3.207,1.466-4.849,2.217c-0.235-0.509-0.467-1.011-0.718-1.556c0.501-0.234,0.991-0.465,1.517-0.711
		c-0.834-1.828-1.661-3.639-2.506-5.491c0.61-0.28,1.207-0.554,1.835-0.844C57.869,70.619,58.698,72.431,59.542,74.273"/>
	<path fill="#FFFFFF" d="M73.025,14.386c-2.171,2.052-4.303,4.067-6.454,6.1c-0.532-0.562-1.044-1.105-1.587-1.681
		c2.144-2.026,4.281-4.046,6.448-6.094C71.962,13.268,72.482,13.814,73.025,14.386"/>
</g>
<g>
	<path fill="#FFFFFF" d="M70.182,120.502c0.325,0.207,0.626,0.476,0.979,0.61c1.798,0.684,2.518,2.095,2.668,3.886
		c0.097,1.146-0.622,2.332-1.665,2.724c-0.291,0.108-0.701,0.106-0.986-0.012c-1.49-0.621-1.614-0.736-2.484-1.826
		c0.028,0.317,0.112,0.622,0.062,0.902c-0.047,0.259-0.186,0.557-0.384,0.712c-0.098,0.076-0.42-0.128-0.637-0.216
		c-0.072-0.029-0.131-0.091-0.241-0.17c0.307,0.752,0.637,1.439,0.858,2.159c0.109,0.354,0.104,0.793,0.003,1.151
		c-0.272,0.958-0.58,1.147-1.546,0.88c-0.562-0.155-1.094-0.464-1.603-0.767c-0.443-0.265-0.883-0.57-1.236-0.941
		c-0.465-0.488-0.791-1.11-1.27-1.581c-1.114-1.096-0.902-2.431-0.822-3.754c-0.511,0.212-1.038,0.476-1.593,0.653
		c-1.378,0.439-2.643-0.028-3.883-0.571c-0.759-0.333-1.517-0.674-2.25-1.061c-0.433-0.229-0.83-0.534-1.218-0.838
		c-0.65-0.51-1.276-1.051-1.922-1.567c-0.512-0.41-0.594-0.92-0.401-1.512c0.195-0.603,0.656-0.93,1.235-1.012
		c0.757-0.105,1.526-0.111,2.291-0.159c0.082-0.005,0.181-0.023,0.247,0.012c1.293,0.673,2.695,0.138,4.04,0.367
		c1.379,0.234,2.75,0.37,3.882,1.3c0.038,0.032,0.117,0.016,0.416,0.045c-0.298-0.417-0.45-0.78-0.722-0.982
		c-0.813-0.604-1.635-1.219-2.53-1.68c-0.434-0.223-1.04-0.116-1.568-0.146c-0.205-0.012-0.423,0.053-0.614,0.003
		c-0.13-0.033-0.294-0.192-0.314-0.316c-0.021-0.125,0.091-0.367,0.193-0.398c0.39-0.119,0.812-0.278,1.2-0.23
		c0.754,0.094,1.444,0.337,2.051,0.907c0.627,0.59,1.423,1.002,2.28,1.411c-0.041-0.129-0.059-0.272-0.126-0.385
		c-0.62-1.03-1.262-2.048-1.861-3.089c-0.118-0.205-0.131-0.504-0.098-0.746c0.013-0.087,0.376-0.236,0.454-0.182
		c0.195,0.139,0.371,0.357,0.462,0.581c0.302,0.746,0.496,1.544,0.862,2.254c0.286,0.556,0.743,1.033,1.17,1.503
		c0.381,0.42,0.824,0.783,1.228,1.16c-0.655-1.711-0.425-3.4,0.024-5.104c0.192-0.73,0.512-1.292,1.142-1.771
		c0.503-0.383,0.777-1.053,1.221-1.532c1.479-1.599,2.887-0.956,4.066,0.327c0.577,0.629,0.959,1.436,1.45,2.147
		c0.546,0.791,1.024,1.586,0.969,2.613c-0.018,0.307,0.246,0.619,0.28,0.94c0.061,0.565,0.052,1.139,0.059,1.709
		c0.008,0.617-0.872,1.293-1.966,1.291c-0.316-0.001-0.632,0.118-0.95,0.137c-0.278,0.018-0.562-0.028-0.843-0.046
		C70.222,120.362,70.201,120.432,70.182,120.502 M62.818,123.823c0.906-1.163,0.906-1.163,0.769-1.594
		C62.51,123.431,62.51,123.431,62.818,123.823 M68.767,115.16c0.903-0.629,1.023-1.068,0.64-1.591
		c-0.14,0.252-0.312,0.503-0.424,0.779C68.878,114.605,68.836,114.889,68.767,115.16 M70.166,123.441
		c0.594-0.912,0.239-1.85-0.653-1.977C70.344,121.855,70.085,122.623,70.166,123.441 M57.211,120.818
		c-0.631-0.309-1.29-0.631-1.961-0.96C55.597,120.579,56.376,120.945,57.211,120.818 M65.296,126.113
		c-0.021-0.064-0.043-0.128-0.065-0.192c-0.387,0.137-0.773,0.272-1.161,0.409C64.616,126.686,65.001,126.537,65.296,126.113"/>
	<path fill="#FFFFFF" d="M29.63,164.072v-0.717c-0.001-3.808,0.013-7.615-0.017-11.423c-0.005-0.622,0.194-0.797,0.78-0.751
		c0.579,0.046,1.168,0.043,1.746-0.002c0.547-0.042,0.714,0.136,0.709,0.693c-0.027,2.726-0.013,5.451-0.012,8.178
		c0,0.347,0,0.694,0,1.104c2.012-0.169,3.506-0.994,4.459-2.685c0.88-1.56,1.025-3.276,0.968-5.021
		c-0.024-0.724-0.097-1.445-0.152-2.254c0.963,0,1.894-0.01,2.823,0.013c0.114,0.003,0.308,0.17,0.323,0.28
		c0.485,3.465,0.247,6.793-2.092,9.629c-1.575,1.91-3.732,2.737-6.134,2.938C31.94,164.148,30.836,164.072,29.63,164.072"/>
	<path fill="#FFFFFF" d="M46.058,158.985c-0.09,2.015,1.714,3.5,3.844,3.103c0.921-0.172,1.798-0.581,2.773-0.909
		c0.26,0.53,0.578,1.178,0.928,1.889c-0.214,0.146-0.402,0.3-0.612,0.414c-2.059,1.114-4.226,1.339-6.464,0.696
		c-1.39-0.398-2.467-1.264-3.029-2.601c-1.151-2.736-1.082-5.456,0.518-8.005c1.473-2.347,4.69-3.329,7.282-2.332
		c1.162,0.447,1.883,1.277,2.077,2.517c0.231,1.473-0.174,2.729-1.388,3.649c-1.237,0.937-2.703,1.247-4.203,1.426
		C47.208,158.9,46.629,158.936,46.058,158.985 M45.922,156.925c1.41-0.043,2.742-0.187,3.901-0.988
		c0.721-0.499,0.939-1.256,0.644-1.966c-0.272-0.652-0.97-0.967-1.836-0.827C47.046,153.398,45.901,154.95,45.922,156.925"/>
	<path fill="#FFFFFF" d="M55.356,161.133c1.14,0.376,2.204,0.78,3.3,1.062c0.457,0.117,0.996,0.04,1.471-0.067
		c0.612-0.139,1.001-0.565,1.091-1.221c0.09-0.66-0.094-1.224-0.688-1.547c-0.487-0.267-1.023-0.45-1.549-0.641
		c-0.624-0.227-1.274-0.387-1.888-0.639c-1.22-0.501-2.035-1.349-2.155-2.731c-0.131-1.517,0.369-2.755,1.675-3.584
		c1.618-1.027,3.401-1.048,5.185-0.629c0.888,0.208,1.722,0.647,2.644,1.007c-0.427,0.828-0.767,1.486-1.145,2.218
		c-0.218-0.132-0.402-0.248-0.591-0.358c-0.975-0.57-2.018-0.887-3.156-0.793c-0.822,0.068-1.423,0.533-1.527,1.152
		c-0.113,0.667,0.239,1.223,1.063,1.566c0.555,0.23,1.142,0.384,1.707,0.594c0.545,0.201,1.092,0.403,1.617,0.651
		c2.844,1.338,2.434,5.187,0.351,6.504c-0.907,0.574-1.897,0.844-2.951,0.888c-1.671,0.068-3.266-0.255-4.776-0.99
		c-0.382-0.187-0.52-0.396-0.321-0.82C54.971,162.196,55.17,161.61,55.356,161.133"/>
	<path fill="#FFFFFF" d="M21.597,161.585c0.238,0.708,0.456,1.354,0.688,2.043c-0.848,0.546-1.785,0.721-2.736,0.781
		c-0.596,0.039-1.211-0.006-1.799-0.115c-1.319-0.244-2.07-1.038-2.313-2.37c-0.063-0.347-0.096-0.703-0.097-1.056
		c-0.007-4.684-0.006-9.367-0.005-14.052c0-0.164,0.021-0.327,0.036-0.545h3.112c0.013,0.255,0.034,0.494,0.035,0.734
		c0.002,4.143,0.001,8.285,0.001,12.428c0,0.229-0.002,0.458,0.005,0.688c0.05,1.658,0.76,2.17,2.344,1.69
		C21.085,161.745,21.301,161.677,21.597,161.585"/>
	<path fill="#FFFFFF" d="M16.939,135.73c-2.31-1.011-3.155-3.184-2.083-5.581c0.763-1.706,2.232-2.304,3.964-2.269
		c0.965,0.019,1.93,0.266,2.883,0.461c0.174,0.036,0.426,0.317,0.425,0.484c-0.013,2.891,0.068,5.791-0.137,8.67
		c-0.189,2.682-2.376,4.018-4.975,3.293c-1.485-0.414-2.134-1.794-1.42-3.256C15.923,136.866,16.491,136.318,16.939,135.73
		 M20.021,131.58c0-0.519,0.021-1.039-0.011-1.556c-0.01-0.178-0.102-0.435-0.236-0.508c-0.868-0.471-2.324-0.05-2.796,0.834
		c-0.595,1.117-0.562,2.287-0.046,3.418c0.322,0.708,1.078,0.975,1.914,0.79c0.708-0.157,1.14-0.689,1.172-1.484
		C20.038,132.577,20.021,132.078,20.021,131.58 M20.028,135.499c-1.059,0.55-1.996,1.052-2.537,2.046
		c-0.4,0.735-0.257,1.461,0.302,1.749c0.707,0.365,1.609,0.063,1.932-0.695C20.131,137.645,20.086,136.637,20.028,135.499"/>
	<path fill="#FFFFFF" d="M44.855,136.555c-0.651,0-1.208-0.003-1.764,0.001c-0.424,0.003-0.37-0.298-0.37-0.566
		c0-1.519,0-3.037,0.001-4.556c0-0.146,0.001-0.291-0.003-0.437c-0.029-1.068-0.428-1.538-1.301-1.534
		c-0.92,0.005-1.65,0.677-1.662,1.589c-0.02,1.622-0.023,3.245,0.004,4.867c0.009,0.488-0.13,0.648-0.626,0.646
		c-1.515-0.006-1.515,0.013-1.515-1.492c0-3.142,0.017-6.283-0.015-9.424c-0.006-0.615,0.183-0.812,0.774-0.75
		c0.426,0.044,0.86,0.008,1.364,0.008v3.778c0.919-0.677,1.831-0.917,2.845-0.781c1.243,0.167,2.037,0.858,2.17,2.116
		c0.111,1.051,0.08,2.117,0.094,3.177C44.865,134.276,44.855,135.356,44.855,136.555"/>
	<path fill="#FFFFFF" d="M23.442,164.085v-0.721c-0.001-3.808,0.012-7.615-0.015-11.422c-0.004-0.606,0.172-0.806,0.772-0.762
		c0.661,0.05,1.33,0.02,1.996,0.009c0.311-0.005,0.45,0.104,0.449,0.434c-0.01,4.099-0.012,8.196-0.018,12.295
		c0,0.039-0.026,0.078-0.059,0.167H23.442z"/>
	<path fill="#FFFFFF" d="M5.208,132.454c-0.006-3.342,2.207-5.172,5.285-4.535c1.375,0.284,2.257,1.112,2.631,2.455
		c0.312,1.125,0.301,2.269-0.009,3.394c-0.563,2.052-2.28,3.152-4.542,2.94c-1.881-0.176-3.109-1.505-3.33-3.607
		C5.216,132.832,5.214,132.561,5.208,132.454 M7.255,132.085c0.146,0.703,0.219,1.328,0.412,1.912
		c0.271,0.816,0.823,1.192,1.566,1.199c0.764,0.007,1.338-0.393,1.644-1.201c0.437-1.154,0.405-2.328,0.015-3.484
		c-0.231-0.685-0.712-1.117-1.466-1.169c-0.769-0.052-1.375,0.271-1.673,0.958C7.502,130.877,7.406,131.521,7.255,132.085"/>
	<path fill="#FFFFFF" d="M30.039,134.556c0.195,0.398,0.394,0.802,0.62,1.263c-0.909,0.733-1.969,0.967-3.077,0.978
		c-2.431,0.023-3.934-1.393-3.978-3.825c-0.016-0.854,0.094-1.762,0.383-2.559c0.714-1.969,2.798-2.961,4.825-2.428
		c0.873,0.23,1.504,0.738,1.681,1.65c0.191,0.987-0.037,1.867-0.881,2.502c-0.9,0.678-1.962,0.877-3.05,0.964
		c-0.912,0.073-1.027,0.28-0.57,1.104c0.479,0.863,1.458,1.226,2.614,0.914C29.079,134.99,29.524,134.761,30.039,134.556
		 M25.711,131.783c0.839,0.034,1.646-0.1,2.377-0.534c0.527-0.314,0.716-0.85,0.511-1.33c-0.243-0.569-0.732-0.631-1.254-0.549
		C26.351,129.525,25.597,130.63,25.711,131.783"/>
	<path fill="#FFFFFF" d="M52.659,134.551c0.206,0.422,0.403,0.827,0.686,1.403c-0.759,0.265-1.448,0.625-2.177,0.739
		c-3.711,0.582-5.418-1.743-4.89-5.176c0.393-2.558,2.329-3.94,4.811-3.598c1.07,0.147,1.824,0.772,2.024,1.678
		c0.24,1.083-0.141,2.071-1.057,2.663c-0.918,0.595-1.958,0.782-3.028,0.852c-0.734,0.047-0.805,0.156-0.538,0.833
		c0.414,1.049,1.479,1.517,2.762,1.166C51.707,134.987,52.135,134.763,52.659,134.551 M48.312,131.782
		c0.841,0.04,1.646-0.092,2.379-0.525c0.538-0.319,0.727-0.835,0.535-1.321c-0.187-0.476-0.682-0.688-1.307-0.561
		C48.954,129.572,48.257,130.592,48.312,131.782"/>
	<path fill="#FFFFFF" d="M31.9,124.938h2.088c0,0.851,0.027,1.676-0.01,2.498c-0.023,0.518,0.15,0.709,0.67,0.672
		c0.514-0.037,1.033-0.009,1.606-0.009v1.614h-2.218c-0.019,0.346-0.046,0.646-0.047,0.948c-0.006,1.061-0.011,2.121,0,3.181
		c0.013,1.197,0.598,1.608,1.735,1.235c0.155-0.051,0.309-0.106,0.536-0.185c0.176,0.425,0.345,0.833,0.508,1.227
		c-1.015,0.764-3.06,0.906-4.004,0.229c-0.343-0.246-0.586-0.682-0.771-1.079c-0.133-0.285-0.127-0.65-0.128-0.98
		c-0.009-2.952-0.005-5.904-0.003-8.856C31.864,125.292,31.885,125.15,31.9,124.938"/>
	<path fill="#FFFFFF" d="M4.374,128.101v1.619c-0.542,0-1.076,0.038-1.604-0.01c-0.571-0.053-0.712,0.184-0.697,0.712
		c0.031,1.103,0.002,2.206,0.012,3.31c0.013,1.36,0.588,1.754,1.879,1.304c0.113-0.039,0.229-0.077,0.4-0.135
		c0.177,0.419,0.344,0.815,0.507,1.204c-0.933,0.794-3.116,0.902-4.087,0.22c-0.52-0.365-0.768-0.902-0.771-1.501
		c-0.021-3.266-0.01-6.531-0.01-9.856h2.079c0,0.849,0.025,1.695-0.01,2.54c-0.019,0.47,0.132,0.633,0.601,0.602
		C3.227,128.073,3.784,128.101,4.374,128.101"/>
	<path fill="#FFFFFF" d="M59.878,128.293c-0.186,0.487-0.374,0.985-0.577,1.518c-0.161-0.034-0.297-0.057-0.429-0.092
		c-1.297-0.354-2.193,0.284-2.223,1.637c-0.032,1.475-0.009,2.95-0.01,4.426c0,0.225,0,0.449,0,0.725h-2.095v-8.392
		c0.409,0,0.919-0.019,1.425,0.016c0.1,0.006,0.223,0.197,0.272,0.327c0.062,0.164,0.062,0.352,0.093,0.564
		C57.637,127.749,58.671,127.536,59.878,128.293"/>
	<path fill="#FFFFFF" d="M35.483,149.355H34.12v-7.524h1.335v2.192c0.663-0.092,1.267-0.262,1.862-0.239
		c0.828,0.03,1.375,0.562,1.418,1.389c0.066,1.286,0.043,2.577,0.025,3.866c-0.002,0.124-0.224,0.322-0.368,0.349
		c-0.297,0.055-0.61,0.017-1.011,0.017c0-0.987,0.001-1.895,0-2.801c0-0.271,0.002-0.541-0.004-0.812
		c-0.01-0.524-0.131-0.963-0.778-0.984c-0.613-0.021-1.09,0.388-1.106,1.014c-0.025,0.936-0.009,1.872-0.01,2.809
		C35.483,148.854,35.483,149.079,35.483,149.355"/>
	<path fill="#FFFFFF" d="M39.647,146.64c0.011-2.03,1.405-3.205,3.4-2.831c0.355,0.067,0.725,0.227,1.013,0.442
		c1.003,0.751,1.217,2.808,0.462,4.079c-0.659,1.11-2.218,1.565-3.458,1.012C40.142,148.93,39.64,147.974,39.647,146.64
		 M43.566,146.765c-0.059-0.432-0.073-0.745-0.147-1.045c-0.137-0.549-0.461-0.947-1.065-0.964
		c-0.593-0.017-1.067,0.325-1.123,0.876c-0.075,0.74-0.038,1.52,0.126,2.242c0.062,0.278,0.603,0.617,0.929,0.621
		c0.329,0.005,0.767-0.303,0.966-0.602C43.476,147.557,43.488,147.077,43.566,146.765"/>
	<path fill="#FFFFFF" d="M29.043,149.021c0.141-0.365,0.256-0.664,0.364-0.944c0.532,0.165,0.994,0.354,1.476,0.445
		c0.423,0.081,0.869,0.019,0.982-0.514c0.106-0.497-0.241-0.706-0.643-0.843c-0.334-0.113-0.676-0.205-1.004-0.332
		c-0.588-0.229-0.971-0.633-1-1.296c-0.029-0.691,0.257-1.236,0.88-1.521c1.08-0.493,2.127-0.364,3.166,0.302
		c-0.159,0.305-0.299,0.573-0.437,0.838c-0.438-0.146-0.836-0.321-1.253-0.403c-0.396-0.078-0.849-0.04-0.971,0.44
		c-0.123,0.482,0.288,0.627,0.647,0.759c0.37,0.135,0.755,0.24,1.109,0.407c0.618,0.291,0.95,0.78,0.918,1.489
		c-0.031,0.688-0.346,1.203-0.974,1.47C31.188,149.794,30.128,149.551,29.043,149.021"/>
	<path fill="#FFFFFF" d="M51.126,141.796v2.06c0.517,0.03,0.98,0.058,1.479,0.087v1.008h-1.451c0,1.036-0.027,2.005,0.013,2.972
		c0.019,0.45,0.364,0.63,0.8,0.573c0.201-0.026,0.396-0.1,0.65-0.167c0.11,0.26,0.222,0.519,0.349,0.815
		c-0.864,0.49-1.745,0.619-2.566,0.139c-0.324-0.189-0.606-0.73-0.619-1.121c-0.066-1.992-0.047-3.986-0.026-5.979
		c0.002-0.131,0.247-0.334,0.408-0.369C50.437,141.751,50.735,141.796,51.126,141.796"/>
	<rect x="23.479" y="146.265" fill="#FFFFFF" width="3.11" height="3.09"/>
	<path fill="#FFFFFF" d="M48.967,145.007c-1.338-0.25-1.717,0.073-1.719,1.367c-0.002,0.974-0.001,1.947-0.001,2.977h-1.388v-5.366
		c0.8-0.216,1.026-0.146,1.185,0.36c0.346-0.188,0.678-0.469,1.053-0.549c0.373-0.08,0.788,0.041,1.278,0.08
		C49.207,144.342,49.091,144.663,48.967,145.007"/>
	<path fill="#FFFFFF" d="M29.045,140.792c-0.003,1.259-0.726,2.057-1.849,2.038c-1.053-0.017-1.702-0.775-1.686-1.973
		c0.015-1.164,0.736-1.918,1.84-1.922C28.433,138.933,29.048,139.606,29.045,140.792 M26.474,140.763
		c0.026,0.263-0.018,0.496,0.078,0.625c0.203,0.275,0.479,0.686,0.727,0.687c0.251,0.001,0.631-0.384,0.723-0.674
		c0.116-0.367,0.076-0.834-0.046-1.21c-0.075-0.23-0.429-0.512-0.658-0.513c-0.235-0.001-0.519,0.275-0.692,0.499
		C26.48,140.337,26.503,140.609,26.474,140.763"/>
	<path fill="#FFFFFF" d="M24.44,139.056c0.239,0,0.493-0.04,0.725,0.016c0.126,0.03,0.295,0.222,0.297,0.343
		c0.001,0.119-0.2,0.355-0.284,0.344c-0.837-0.117-0.831,0.397-0.807,0.983c0.026,0.619,0.006,1.24,0.006,1.933
		c-0.3,0.016-0.557,0.028-0.935,0.047c0-0.449-0.001-0.854,0-1.257c0-0.789-0.004-1.579,0.001-2.367
		c0.007-1.453,0.994-2.016,2.326-1.283c-0.056,0.159-0.114,0.327-0.17,0.486C24.487,138.183,24.387,138.243,24.44,139.056"/>
	<path fill="#FFFFFF" d="M30.55,142.686h-0.891v-3.646c0.266,0.046,0.542,0.093,0.83,0.144c0.412-0.075,0.883-0.161,1.521-0.277
		c-0.146,0.436-0.214,0.643-0.28,0.84c-1.018-0.007-1.165,0.134-1.178,1.13C30.544,141.454,30.55,142.033,30.55,142.686"/>
</g>
<g>
	<path fill="#FFFFFF" d="M74.049,180.363c0.245-0.674,0.486-1.334,0.723-1.996c0.196-0.547,0.785-0.842,1.329-0.651
		c0.065,0.023,0.119,0.102,0.161,0.166c0.167,0.253,0.35,0.499,0.482,0.769c0.128,0.263,0.202,0.552,0.325,0.903
		c0.442-0.427,0.811-0.784,1.182-1.14c0.271-0.26,0.475-0.26,0.711,0.027c0.144,0.175,0.237,0.393,0.381,0.567
		c0.051,0.062,0.212,0.103,0.278,0.067c0.142-0.074,0.249-0.211,0.379-0.31c0.257-0.193,0.434-0.113,0.531,0.186
		c0.166,0.509,0.365,1.006,0.542,1.511c0.083,0.241,0.145,0.489,0.226,0.763c0.346-0.16,0.677-0.369,1.038-0.466
		c0.464-0.125,0.955-0.223,1.431-0.212c0.346,0.008,0.225,0.385,0.204,0.606c-0.038,0.404-0.125,0.805-0.189,1.207
		c-0.017,0.103-0.028,0.207-0.053,0.393c0.294-0.101,0.57-0.153,0.803-0.283c0.533-0.298,1.095-0.394,1.693-0.347
		c0.285,0.022,0.444,0.175,0.423,0.453c-0.024,0.325-0.071,0.651-0.147,0.967c-0.06,0.25,0,0.349,0.256,0.359
		c0.28,0.011,0.56,0.045,0.839,0.072c0.684,0.066,0.733,0.472,0.555,0.999c-0.074,0.219-0.177,0.433-0.293,0.633
		c-0.337,0.578-0.868,0.946-1.429,1.277c-0.05,0.03-0.118,0.035-0.159,0.072c-0.078,0.072-0.141,0.159-0.21,0.24
		c0.089,0.041,0.175,0.108,0.268,0.117c0.688,0.065,1.382,0.083,2.062,0.191c0.355,0.057,0.691,0.257,1.022,0.418
		c0.046,0.022,0.066,0.234,0.018,0.292c-0.19,0.23-0.403,0.444-0.625,0.644c-0.153,0.138-0.335,0.242-0.493,0.354
		c0.178,0.215,0.367,0.378,0.475,0.585c0.268,0.511,0.106,0.79-0.392,1.041c-0.669,0.337-1.366,0.453-2.098,0.455
		c-0.077,0-0.154,0.036-0.271,0.149c0.256,0.136,0.498,0.319,0.771,0.398c0.46,0.134,0.876,0.318,1.212,0.667
		c0.048,0.05,0.102,0.108,0.165,0.129c0.574,0.197,0.768,0.719,1.016,1.188c0.193,0.366,0.08,0.566-0.333,0.634
		c-0.631,0.104-1.262,0.206-1.937,0.315c0.077,0.124,0.141,0.257,0.231,0.369c0.514,0.636,0.444,0.965-0.291,1.345
		c-0.174,0.09-0.348,0.18-0.584,0.303c0.119,0.085,0.211,0.137,0.286,0.207c0.118,0.111,0.245,0.221,0.33,0.356
		c0.1,0.16,0.159,0.345,0.235,0.519c-0.173,0.05-0.343,0.123-0.521,0.148c-0.723,0.105-1.449,0.196-2.224,0.299
		c0.088,0.213,0.171,0.452,0.283,0.676c0.289,0.576,0.112,0.879-0.539,0.863c-0.639-0.016-1.287,0.009-1.882-0.306
		c-0.246-0.13-0.3,0.021-0.309,0.24c-0.014,0.361-0.013,0.728-0.079,1.081c-0.101,0.534-0.595,0.689-1.039,0.363
		c-0.319-0.234-0.647-0.456-0.978-0.675c-0.182-0.121-0.317-0.046-0.299,0.158c0.058,0.672-0.503,0.862-0.903,1.161
		c-0.082,0.061-0.327-0.029-0.456-0.112c-0.367-0.239-0.336-0.237-0.577,0.124c-0.146,0.217-0.37,0.386-0.572,0.562
		c-0.175,0.153-0.366,0.392-0.555,0.396c-0.184,0.004-0.37-0.246-0.561-0.375c-0.202-0.136-0.454-0.223-0.604-0.399
		c-0.182-0.212-0.286-0.493-0.412-0.75c-0.052-0.105-0.075-0.226-0.114-0.348c-0.303,0.278-0.557,0.537-0.839,0.761
		c-0.187,0.148-0.409,0.253-0.623,0.364c-0.153,0.08-0.321,0.13-0.479,0.204c-0.363,0.169-0.54,0.129-0.714-0.222
		c-0.133-0.268-0.242-0.551-0.33-0.837c-0.091-0.296-0.271-0.235-0.467-0.154c-0.406,0.167-0.807,0.349-1.216,0.506
		c-0.399,0.154-0.695-0.049-0.708-0.485c-0.012-0.38-0.002-0.761-0.002-1.14c-0.656,0.322-1.406,0.315-2.148,0.293
		c-0.203-0.006-0.497-0.132-0.579-0.291c-0.128-0.246-0.138-0.568,0.152-0.792c0.116-0.09,0.202-0.217,0.348-0.379
		c-0.719-0.048-1.377-0.096-2.035-0.135c-0.464-0.027-0.525-0.105-0.407-0.556c0.017-0.065,0.036-0.131,0.071-0.258
		c-0.345-0.082-0.67-0.155-0.993-0.238c-0.444-0.113-0.496-0.241-0.195-0.582c0.134-0.152,0.344-0.238,0.52-0.354
		c0.121-0.08,0.241-0.16,0.353-0.235c-0.505-0.212-0.977-0.417-1.454-0.609c-0.24-0.097-0.297-0.291-0.208-0.483
		c0.139-0.299,0.331-0.575,0.508-0.855c0.042-0.067,0.126-0.108,0.171-0.175c0.08-0.121,0.144-0.251,0.214-0.378
		c-0.133-0.054-0.263-0.14-0.401-0.158c-0.564-0.075-1.058-0.323-1.534-0.608c-0.109-0.065-0.237-0.23-0.225-0.333
		c0.018-0.146,0.127-0.324,0.251-0.409c0.652-0.448,1.426-0.481,2.176-0.587c0.097-0.014,0.195-0.027,0.293-0.04
		c0.005-0.033,0.01-0.065,0.015-0.098c-0.107-0.03-0.214-0.063-0.322-0.09c-0.292-0.073-0.584-0.141-0.875-0.216
		c-0.37-0.095-0.756-0.153-1.102-0.304c-0.511-0.224-0.998-0.497-1.271-1.039c-0.141-0.279-0.133-0.445,0.109-0.621
		c0.155-0.113,0.267-0.286,0.424-0.393c0.373-0.252,0.74-0.526,1.147-0.71c0.811-0.365,1.702-0.385,2.568-0.502
		c0.091-0.012,0.174-0.081,0.261-0.123c-0.059-0.079-0.104-0.178-0.18-0.233c-0.63-0.458-1.25-0.934-1.907-1.35
		c-0.352-0.223-0.417-0.532-0.458-0.879c-0.047-0.395,0.11-0.63,0.506-0.651c0.652-0.033,1.306-0.016,1.959-0.015
		c0.125,0,0.25,0.021,0.451,0.038c-0.256-0.324-0.463-0.59-0.674-0.852c-0.244-0.304-0.289-1.233-0.04-1.533
		c0.082-0.099,0.253-0.148,0.391-0.17c0.179-0.028,0.365-0.007,0.564-0.007c-0.013-0.219-0.001-0.386-0.037-0.541
		c-0.112-0.487,0.252-0.696,0.756-0.544c0.211,0.063,0.436,0.088,0.642,0.164c0.189,0.07,0.362,0.185,0.592,0.306
		c0-0.355-0.006-0.661,0.003-0.965c0.003-0.125,0.013-0.261,0.065-0.372c0.222-0.473,0.546-0.556,1.067-0.294
		c0.217,0.109,0.436,0.212,0.695,0.338c0-0.174-0.005-0.298,0.001-0.421c0.012-0.232,0.007-0.47,0.057-0.695
		c0.026-0.12,0.151-0.219,0.232-0.327c0.114,0.086,0.219,0.188,0.343,0.256c0.265,0.146,0.539,0.276,0.875,0.445
		c0.018-0.221,0.031-0.364,0.041-0.508c0.027-0.414,0.386-0.629,0.742-0.423c0.439,0.253,0.907,0.482,1.283,0.812
		C73.547,179.583,73.773,179.999,74.049,180.363"/>
	<path fill="#FFFFFF" d="M57.29,219.047v0.499c0,2.323,0.002,4.645-0.002,6.968c0,0.304-0.005,0.612-0.057,0.91
		c-0.05,0.286-0.158,0.567-0.52,0.605c-0.012,0.001-0.026,0-0.035,0.006c-0.671,0.519-1.337,0.33-2-0.017
		c-0.089-0.047-0.215-0.108-0.234-0.186c-0.11-0.435-0.271-0.875-0.271-1.315c-0.017-6.862-0.017-13.724,0-20.585
		c0.001-0.405,0.135-0.828,0.297-1.204c0.064-0.15,0.37-0.197,0.566-0.291c0.457-0.218,0.89-0.229,1.379-0.019
		c0.368,0.159,0.735,0.255,0.816,0.7c0.048,0.263,0.048,0.536,0.06,0.804c0.009,0.196,0.002,0.392,0.08,0.624
		c0.213-0.263,0.408-0.545,0.646-0.784c0.21-0.212,0.476-0.366,0.703-0.563c0.86-0.745,1.951-0.736,2.981-0.898
		c0.816-0.128,1.633-0.032,2.438,0.164c0.191,0.047,0.392,0.055,0.59,0.068c0.732,0.049,1.285,0.509,1.877,0.854
		c0.515,0.3,1.045,0.637,1.432,1.077c0.492,0.559,1.084,1.055,1.357,1.799c0.217,0.594,0.62,1.135,0.754,1.741
		c0.303,1.371,0.461,2.767,0.23,4.177c-0.081,0.494-0.112,0.997-0.215,1.484c-0.059,0.279-0.21,0.541-0.333,0.803
		c-0.141,0.299-0.354,0.577-0.433,0.89c-0.159,0.632-0.659,1.004-1.035,1.463c-0.339,0.414-0.726,0.821-1.168,1.112
		c-0.629,0.414-1.297,0.822-2.007,1.047c-0.987,0.313-2.026,0.421-3.08,0.365c-0.966-0.052-1.902-0.197-2.752-0.669
		c-0.602-0.334-1.247-0.627-1.628-1.262C57.648,219.29,57.489,219.213,57.29,219.047 M56.998,212.788
		c0.11,1.005,0.129,2.016,0.542,2.947c0.222,0.499,0.45,1.023,0.799,1.431c0.897,1.048,2.037,1.712,3.455,1.741
		c0.604,0.012,1.216-0.034,1.812-0.131c0.563-0.091,1.041-0.425,1.511-0.741c0.182-0.122,0.367-0.248,0.518-0.403
		c0.488-0.504,0.894-1.082,1.147-1.727c0.464-1.183,0.78-2.406,0.625-3.701c-0.116-0.968-0.37-1.889-0.795-2.776
		c-0.388-0.809-0.91-1.511-1.666-1.942c-0.616-0.352-1.261-0.672-2.031-0.758c-1.756-0.195-3.193,0.359-4.417,1.568
		c-0.202,0.199-0.348,0.465-0.48,0.721c-0.269,0.521-0.599,1.035-0.739,1.593C57.1,211.316,57.083,212.064,56.998,212.788"/>
	<path fill="#FFFFFF" d="M3.105,206.494c0.412-0.389,0.715-0.813,1.127-1.034c0.776-0.416,1.495-1.02,2.469-0.965
		c0.212,0.012,0.43-0.092,0.647-0.136c0.854-0.172,1.698-0.108,2.539,0.103c0.224,0.056,0.466,0.038,0.692,0.087
		c1.028,0.224,1.865,0.805,2.619,1.495c0.725,0.664,1.205,1.487,1.461,2.453c0.262,0.986,0.33,1.979,0.325,2.992
		c-0.012,2.698-0.009,5.396,0,8.094c0.002,0.482-0.079,0.931-0.361,1.322c-0.083,0.115-0.224,0.203-0.356,0.262
		c-1.161,0.515-2.498,0.055-2.489-1.398c0.007-1.231,0.001-2.463,0.001-3.695c0-1.725,0.026-3.449-0.014-5.172
		c-0.015-0.634-0.159-1.27-0.301-1.892c-0.052-0.228-0.26-0.424-0.412-0.624c-0.166-0.218-0.321-0.457-0.531-0.624
		c-0.263-0.209-0.569-0.366-0.868-0.525c-0.889-0.475-1.826-0.595-2.834-0.501c-0.649,0.06-1.151,0.405-1.727,0.601
		c-0.9,0.307-1.337,1.075-1.717,1.823c-0.235,0.463-0.254,1.069-0.258,1.611c-0.023,3.015-0.013,6.029-0.01,9.043
		c0.001,0.624-0.245,1.099-0.789,1.413c-0.698,0.403-1.909,0.042-2.251-0.681c-0.052-0.111-0.065-0.249-0.065-0.375
		C0,212.709,0,205.25,0.001,197.79c0-0.509,0.382-0.959,0.87-1.146c0.535-0.205,1.093-0.162,1.531,0.086
		c0.432,0.244,0.695,0.747,0.701,1.297c0.01,0.997,0.004,1.994,0.004,2.991c0,1.654,0,3.308-0.001,4.961V206.494z"/>
	<path fill="#FFFFFF" d="M98.915,213.994c-0.026,0.727,0.136,1.358,0.39,1.942c0.257,0.592,0.571,1.165,1.115,1.587
		c0.667,0.519,1.379,0.899,2.192,1.154c1.098,0.344,2.204,0.27,3.302,0.164c0.572-0.055,1.128-0.329,1.679-0.537
		c0.411-0.155,0.815-0.341,1.199-0.554c0.371-0.206,0.707-0.475,1.07-0.697c0.264-0.162,0.533-0.355,0.825-0.423
		c0.532-0.122,0.987,0.139,1.27,0.697c0.208,0.41,0.135,0.815-0.165,1.178c-0.31,0.375-0.669,0.678-1.051,0.987
		c-0.982,0.793-2.147,1.167-3.291,1.502c-1.058,0.311-2.198,0.462-3.331,0.352c-0.929-0.09-1.885-0.093-2.773-0.339
		c-0.588-0.162-1.248-0.328-1.732-0.806c-0.137-0.135-0.37-0.167-0.536-0.281c-0.925-0.635-1.577-1.51-2.215-2.42
		c-0.354-0.505-0.472-1.039-0.621-1.6c-0.235-0.882-0.502-1.751-0.536-2.675c-0.036-1.018,0.086-2.007,0.455-2.962
		c0.07-0.182,0.113-0.379,0.139-0.573c0.067-0.508,0.232-0.963,0.603-1.336c0.113-0.114,0.185-0.268,0.281-0.399
		c0.34-0.464,0.632-0.975,1.034-1.376c0.663-0.662,1.426-1.191,2.314-1.548c0.438-0.176,0.837-0.439,1.322-0.505
		c1.391-0.188,2.776-0.449,4.176-0.052c0.255,0.072,0.548,0.03,0.791,0.125c0.502,0.196,0.975,0.466,1.474,0.672
		c0.791,0.326,1.416,0.893,1.96,1.503c0.501,0.563,0.961,1.18,1.285,1.896c0.538,1.189,0.81,2.424,0.884,3.716
		c0.024,0.418-0.068,0.831-0.356,1.104c-0.236,0.224-0.592,0.343-0.915,0.446c-0.227,0.073-0.487,0.055-0.733,0.056
		c-3.648,0.003-7.296,0.002-10.944,0.002H98.915z M98.832,211.773c0.188,0.022,0.245,0.035,0.302,0.035
		c3.295,0.001,6.59,0,9.885,0.005c0.271,0,0.323-0.123,0.282-0.349c-0.062-0.345-0.07-0.711-0.198-1.03
		c-0.265-0.662-0.498-1.374-0.926-1.922c-0.376-0.482-0.839-0.931-1.489-1.194c-0.64-0.259-1.24-0.577-1.945-0.602
		c-0.83-0.03-1.678-0.13-2.459,0.217c-0.556,0.247-1.162,0.426-1.6,0.901c-0.162,0.176-0.381,0.299-0.551,0.469
		c-0.419,0.419-0.642,0.962-0.819,1.505C99.11,210.434,98.995,211.088,98.832,211.773"/>
	<path fill="#FFFFFF" d="M26.583,221.43c-0.772-0.111-1.544-0.224-2.317-0.333c-0.775-0.109-1.438-0.467-2.074-0.898
		c-0.142-0.097-0.331-0.13-0.459-0.239c-0.416-0.351-0.854-0.689-1.208-1.097c-0.454-0.523-0.837-1.108-1.247-1.669
		c-0.055-0.075-0.099-0.162-0.126-0.25c-0.284-0.907-0.663-1.799-0.82-2.728c-0.226-1.331-0.209-2.68,0.308-3.976
		c0.21-0.527,0.314-1.102,0.567-1.605c0.461-0.917,1.078-1.748,1.872-2.399c0.563-0.462,1.194-0.869,1.848-1.19
		c1.715-0.843,3.533-0.938,5.391-0.59c0.228,0.042,0.465,0.041,0.692,0.085c0.959,0.188,1.761,0.713,2.556,1.236
		c0.726,0.478,1.307,1.107,1.761,1.85c0.319,0.522,0.736,1.014,0.926,1.581c0.304,0.912,0.538,1.865,0.652,2.818
		c0.159,1.335-0.066,2.652-0.487,3.937c-0.262,0.802-0.65,1.507-1.165,2.184c-0.427,0.562-0.881,1.081-1.412,1.532
		c-0.214,0.182-0.548,0.241-0.726,0.444c-0.395,0.451-0.951,0.585-1.455,0.768c-0.98,0.354-2.013,0.513-3.067,0.45
		C26.59,221.371,26.586,221.4,26.583,221.43 M21.363,213.079c0.045,0.299,0.102,0.847,0.212,1.384
		c0.196,0.958,0.557,1.862,1.125,2.657c0.448,0.626,1.082,1.084,1.783,1.378c0.527,0.221,1.116,0.33,1.689,0.399
		c0.856,0.104,1.719,0.021,2.497-0.373c0.6-0.303,1.204-0.598,1.624-1.209c0.252-0.367,0.606-0.652,0.747-1.115
		c0.201-0.659,0.5-1.276,0.613-1.977c0.202-1.265,0.117-2.494-0.198-3.719c-0.051-0.2-0.215-0.376-0.249-0.577
		c-0.132-0.785-0.585-1.386-1.145-1.881c-0.8-0.706-1.717-1.202-2.816-1.333c-1.245-0.148-2.373,0.174-3.438,0.759
		c-0.324,0.178-0.617,0.464-0.842,0.763c-0.464,0.617-0.88,1.25-1.113,2.023C21.599,211.108,21.394,211.947,21.363,213.079"/>
	<path fill="#FFFFFF" d="M44.04,221.422c-1.042-0.127-2.097-0.19-3.12-0.406c-0.669-0.141-1.291-0.506-1.934-0.771
		c-0.181-0.074-0.373-0.129-0.542-0.225c-0.591-0.333-0.984-0.867-1.326-1.426c-0.294-0.481-0.075-1.13,0.415-1.417
		c0.16-0.094,0.293-0.271,0.46-0.304c0.23-0.046,0.506-0.055,0.715,0.033c0.43,0.18,0.821,0.451,1.243,0.653
		c0.79,0.379,1.578,0.768,2.39,1.092c0.974,0.39,2.016,0.36,3.015,0.187c1-0.173,1.942-0.557,2.432-1.592
		c0.188-0.398,0.171-0.762,0.01-1.144c-0.298-0.706-0.934-1.019-1.562-1.34c-0.062-0.032-0.141-0.042-0.188-0.088
		c-0.38-0.372-0.878-0.462-1.363-0.59c-0.11-0.029-0.216-0.081-0.321-0.126c-0.38-0.166-0.746-0.376-1.14-0.493
		c-0.936-0.278-1.819-0.66-2.694-1.092c-0.531-0.263-0.965-0.614-1.424-0.968c-0.626-0.482-1.113-1.044-1.304-1.794
		c-0.206-0.806-0.054-1.57,0.37-2.319c0.41-0.725,0.896-1.388,1.594-1.791c0.809-0.467,1.604-1.032,2.631-1.012
		c0.496,0.009,0.992-0.175,1.491-0.199c0.499-0.023,1.003,0.028,1.501,0.08c0.568,0.06,1.153,0.09,1.694,0.255
		c0.683,0.209,1.333,0.53,1.987,0.824c0.561,0.251,1.001,0.667,1.34,1.169c0.503,0.743,0.05,1.626-0.837,1.78
		c-0.69,0.12-1.279-0.039-1.784-0.48c-0.39-0.341-0.873-0.483-1.302-0.732c-1.062-0.616-2.203-0.543-3.338-0.401
		c-0.399,0.049-0.772,0.309-1.158,0.472c-0.337,0.143-0.625,0.312-0.817,0.667c-0.257,0.475-0.249,1.345,0.087,1.712
		c0.314,0.342,0.662,0.574,1.094,0.744c0.664,0.262,1.298,0.599,1.946,0.902c0.052,0.024,0.11,0.044,0.167,0.045
		c0.599,0.018,1.109,0.296,1.637,0.535c0.356,0.162,0.756,0.229,1.112,0.393c0.573,0.263,1.102,0.636,1.692,0.842
		c0.651,0.227,0.945,0.86,1.517,1.156c0.065,0.034,0.114,0.12,0.148,0.192c0.235,0.491,0.474,0.965,0.485,1.545
		c0.014,0.736-0.026,1.471-0.329,2.126c-0.222,0.481-0.646,0.869-0.986,1.294c-0.15,0.188-0.283,0.416-0.478,0.539
		c-0.435,0.274-0.893,0.52-1.362,0.732C46.682,221.236,45.375,221.355,44.04,221.422"/>
	<path fill="#FFFFFF" d="M88.885,221.442c-0.888-0.123-1.776-0.25-2.665-0.368c-0.767-0.102-1.431-0.429-2.05-0.878
		c-0.144-0.104-0.358-0.111-0.502-0.216c-0.247-0.18-0.475-0.39-0.689-0.608c-0.46-0.469-0.923-0.938-1.35-1.436
		c-0.167-0.195-0.251-0.465-0.36-0.706c-0.807-1.789-1.242-3.648-0.943-5.616c0.141-0.929,0.307-1.861,0.771-2.706
		c0.238-0.434,0.417-0.901,0.665-1.328c0.11-0.19,0.343-0.304,0.492-0.477c0.13-0.151,0.198-0.358,0.333-0.503
		c0.608-0.65,1.379-1.073,2.137-1.52c0.831-0.489,1.76-0.561,2.676-0.707c1.184-0.19,2.358-0.13,3.531,0.09
		c0.16,0.03,0.326,0.021,0.488,0.042c0.968,0.128,1.73,0.599,2.343,1.357c0.338,0.418,0.043,1.352-0.511,1.571
		c-0.504,0.2-0.92,0.122-1.416,0.011c-0.533-0.119-0.983-0.433-1.497-0.528c-0.683-0.127-1.389-0.202-2.083-0.188
		c-1.125,0.022-2.083,0.545-2.919,1.257c-0.393,0.334-0.708,0.745-0.964,1.23c-0.639,1.214-1.08,2.466-1.007,3.844
		c0.031,0.588,0.15,1.188,0.34,1.746c0.256,0.75,0.618,1.464,0.936,2.193c0.014,0.032,0.032,0.064,0.056,0.088
		c1.268,1.314,2.779,2.027,4.636,1.807c0.55-0.065,1.093-0.222,1.626-0.38c0.339-0.101,0.644-0.309,0.98-0.421
		c0.412-0.138,0.843-0.18,1.256,0.017c0.459,0.218,0.704,0.84,0.545,1.327c-0.205,0.627-0.682,0.984-1.232,1.272
		c-1.136,0.593-2.37,0.634-3.61,0.642C88.894,221.381,88.89,221.412,88.885,221.442"/>
	<path fill="#FFFFFF" d="M73.848,212.827c0-2.323-0.009-4.646,0.01-6.969c0.003-0.353,0.13-0.706,0.209-1.056
		c0.014-0.06,0.07-0.121,0.123-0.16c0.692-0.504,1.798-0.534,2.425,0.035c0.22,0.2,0.236,0.63,0.333,0.958
		c0.025,0.086,0.005,0.187,0.005,0.28c0,4.61,0.003,9.221-0.007,13.832c0,0.333-0.053,0.684-0.167,0.996
		c-0.142,0.388-0.556,0.506-0.903,0.572c-0.565,0.106-1.143,0.063-1.643-0.286c-0.079-0.055-0.151-0.156-0.173-0.248
		c-0.083-0.35-0.2-0.704-0.203-1.057C73.839,217.426,73.848,215.126,73.848,212.827"/>
	<path fill="#FFFFFF" d="M127.879,208.256c0.419-0.367,0.82-0.695,1.194-1.053c0.524-0.503,1.03-1.025,1.541-1.542
		c0.323-0.327,0.633-0.668,0.967-0.984c0.093-0.087,0.25-0.138,0.381-0.148c0.28-0.022,0.562-0.01,0.843-0.007
		c0.356,0.003,0.556,0.225,0.676,0.524c0.111,0.278,0.105,0.578-0.115,0.789c-0.559,0.537-1.145,1.045-1.715,1.569
		c-0.218,0.2-0.417,0.42-0.638,0.618c-0.36,0.322-0.73,0.633-1.117,0.965c0.417,0.386,0.795,0.738,1.175,1.089
		c0.562,0.518,1.137,1.021,1.683,1.556c0.372,0.364,0.718,0.757,1.047,1.16c0.42,0.514,0.142,1.23-0.51,1.386
		c-0.666,0.16-1.133-0.132-1.578-0.594c-0.539-0.559-1.135-1.062-1.694-1.603c-0.137-0.132-0.203-0.337-0.342-0.466
		c-0.585-0.544-1.186-1.071-1.805-1.626c-0.005,0.123-0.016,0.246-0.016,0.369c-0.001,0.938-0.001,1.876-0.002,2.814
		c0,0.385-0.022,0.788-0.414,0.977c-0.471,0.227-0.997,0.288-1.448-0.013c-0.29-0.193-0.412-0.545-0.41-0.926
		c0.008-2.005,0.003-4.01,0.003-6.015c0-0.516-0.004-1.032,0.001-1.548c0.008-0.714,0.312-1.018,1.026-1.039
		c1.047-0.03,1.242,0.156,1.241,1.19c0,0.727-0.001,1.454,0.001,2.181C127.855,208,127.87,208.124,127.879,208.256"/>
	<path fill="#FFFFFF" d="M115.166,208.005c0-0.809-0.004-1.619,0.001-2.428c0.005-0.763,0.282-1.043,1.035-1.07
		c0.094-0.003,0.188-0.003,0.281,0c0.739,0.028,0.946,0.235,0.949,0.988c0.006,1.49,0.021,2.979-0.005,4.468
		c-0.013,0.768,0.316,1.383,0.761,1.949c0.14,0.178,0.4,0.296,0.628,0.365c0.866,0.259,1.783,0.292,2.461-0.33
		c0.476-0.436,0.824-1.072,0.813-1.819c-0.021-1.489-0.006-2.979-0.006-4.468c0-0.105-0.017-0.217,0.011-0.315
		c0.156-0.547,0.315-0.847,0.928-0.846c1.091,0.002,1.292,0.167,1.292,1.269c0.001,1.466-0.02,2.932,0.007,4.398
		c0.021,1.164-0.4,2.177-1.23,2.907c-0.716,0.63-1.554,1.207-2.627,1.141c-0.7-0.043-1.404-0.033-2.104-0.081
		c-0.211-0.014-0.438-0.105-0.619-0.221c-0.497-0.319-1.037-0.606-1.441-1.022c-0.642-0.66-1.084-1.469-1.121-2.422
		c-0.032-0.82-0.006-1.642-0.006-2.462H115.166z"/>
</g>
<g>
	<path fill="#FFFFFF" d="M30.148,239.986c-0.535,0.934-1.059,1.874-1.605,2.801c-4.833,8.189-9.67,16.376-14.507,24.563
		c-0.067,0.115-0.143,0.227-0.279,0.441c0-0.25,0.011-0.391-0.002-0.528c-0.064-0.662-0.136-1.323-0.205-1.984
		c-0.014-0.133-0.081-0.29-0.032-0.395c0.355-0.767,0.152-1.496-0.23-2.147c-0.271-0.463-0.207-0.741,0.101-1.138
		c5.464-7.054,10.914-14.12,16.365-21.183c0.108-0.14,0.209-0.286,0.313-0.43H30.148z"/>
	<path fill="#FFFFFF" d="M126,263.662c-0.561,0.448-1.071,0.993-1.694,1.323c-1.156,0.611-2.415,0.27-2.59-1.325
		c-0.157-1.428,0.153-2.769,0.89-3.996c0.297-0.495,0.724-0.86,1.356-0.851c0.444,0.007,0.755,0.266,0.729,0.705
		c-0.025,0.413-0.107,0.842-0.263,1.223c-0.343,0.839-0.925,1.515-1.659,2.037c-0.422,0.301-0.288,0.662-0.2,1.024
		c0.094,0.391,0.286,0.76,0.746,0.737c0.34-0.018,0.701-0.12,1.002-0.28c0.393-0.21,0.725-0.532,1.105-0.769
		c0.163-0.102,0.384-0.107,0.579-0.157V263.662z M122.619,261.948c0.655-0.536,1.145-1.168,1.324-1.991
		c0.027-0.122-0.066-0.27-0.104-0.406c-0.12,0.042-0.28,0.048-0.352,0.131C122.927,260.327,122.738,261.123,122.619,261.948"/>
	<path fill="#FFFFFF" d="M0,250.964c0.864,0.766,1.764,1.496,2.569,2.32c0.214,0.219,0.136,0.725,0.192,1.099
		c-0.049,0.023-0.1,0.046-0.149,0.069c-0.48-0.426-0.96-0.853-1.511-1.342c-0.045,0.414-0.154,0.744,0.188,1.013
		c0.106,0.084,0.19,0.201,0.304,0.272c0.594,0.374,0.629,0.927,0.494,1.629c-0.331-0.285-0.628-0.542-1.026-0.886v1.842
		c-0.041,0.013-0.082,0.026-0.123,0.039L0,256.207V250.964z"/>
	<path fill="#FFFFFF" d="M26.288,259.173c-0.139-0.363,0.129-0.527,0.473-0.642c0.379-0.125,0.516,0.123,0.625,0.41
		c0.652,1.733,1.039,3.525,1.225,5.366c0.115,1.149,0.132,2.293-0.181,3.409c-0.138,0.492-0.347,0.983-0.621,1.413
		c-0.698,1.094-1.901,1.42-3.082,0.88c-0.794-0.363-1.384-0.959-1.83-1.701c-0.116-0.192-0.235-0.438,0.039-0.555
		c0.111-0.047,0.356,0.104,0.477,0.227c0.343,0.349,0.623,0.764,0.983,1.091c1.102,1.004,2.547,0.682,3.082-0.702
		c0.198-0.513,0.318-1.076,0.357-1.626c0.113-1.586-0.061-3.152-0.455-4.8c-0.131,0.174-0.217,0.281-0.296,0.394
		c-0.715,1.014-1.588,1.869-2.609,2.571c-0.167,0.115-0.35,0.221-0.54,0.285c-0.487,0.165-0.791-0.058-0.758-0.563
		c0.018-0.269,0.074-0.541,0.155-0.799c0.438-1.38,1.122-2.634,2.025-3.761C25.606,259.758,25.936,259.508,26.288,259.173
		 M24.017,264.314c0.142-0.042,0.196-0.048,0.24-0.072c0.083-0.047,0.174-0.092,0.236-0.16c0.696-0.764,1.404-1.518,2.07-2.306
		c0.193-0.229,0.351-0.555,0.371-0.847c0.02-0.293-0.064-0.699-0.263-0.873c-0.257-0.226-0.483,0.135-0.646,0.326
		c-0.885,1.041-1.514,2.229-1.958,3.519C24.03,264.009,24.037,264.132,24.017,264.314"/>
	<path fill="#FFFFFF" d="M93.332,260.241c0.906-0.198,1.728-0.385,2.552-0.555c0.252-0.052,0.513-0.068,0.771-0.082
		c0.421-0.021,0.561,0.153,0.497,0.579c-0.09,0.605-0.226,1.211-0.244,1.819c-0.022,0.744,0.054,1.492,0.097,2.238
		c0.016,0.271,0.136,0.454,0.447,0.488c0.108,0.012,0.202,0.141,0.302,0.217c-0.08,0.101-0.141,0.234-0.245,0.295
		c-0.489,0.287-0.991,0.128-1.132-0.428c-0.154-0.603-0.249-1.232-0.268-1.853c-0.026-0.854,0.043-1.712,0.074-2.631
		c-0.22,0.021-0.462,0.018-0.69,0.072c-0.621,0.149-1.242,0.306-1.849,0.502c-0.132,0.042-0.302,0.27-0.292,0.401
		c0.11,1.616,0.221,3.234,0.4,4.845c0.064,0.571,0.275,1.138,0.494,1.677c0.213,0.524,0.398,0.574,0.954,0.495
		c0.102-0.015,0.214,0.052,0.322,0.08c-0.056,0.114-0.081,0.265-0.171,0.336c-0.425,0.338-1.141,0.179-1.559-0.343
		c-0.54-0.672-0.776-1.479-0.884-2.305c-0.161-1.227-0.236-2.466-0.349-3.699c-0.026-0.293-0.055-0.587-0.089-0.958
		c-0.402,0.214-0.736,0.386-1.065,0.567c-0.217,0.119-0.452,0.163-0.545-0.099c-0.039-0.109,0.101-0.353,0.226-0.437
		c0.337-0.229,0.701-0.424,1.07-0.597c0.245-0.114,0.322-0.264,0.336-0.532c0.061-1.168,0.101-2.342,0.258-3.497
		c0.069-0.503,0.367-0.989,0.625-1.447c0.201-0.356,0.562-0.562,0.987-0.572c0.278-0.006,0.523,0.08,0.524,0.432
		c0.001,0.313-0.227,0.577-0.523,0.539c-0.313-0.04-0.455,0.156-0.512,0.365c-0.195,0.719-0.402,1.442-0.499,2.178
		C93.267,258.959,93.332,259.603,93.332,260.241"/>
	<path fill="#FFFFFF" d="M48.639,265.949c0.216-0.391,0.454-0.771,0.646-1.173c0.559-1.17,1.1-2.349,1.647-3.523
		c0.035-0.074,0.046-0.17,0.101-0.222c0.168-0.158,0.353-0.299,0.531-0.446c0.102,0.186,0.267,0.362,0.296,0.56
		c0.147,0.979,0.346,1.938,0.896,2.781c0.169,0.259,0.375,0.508,0.61,0.706c0.326,0.273,0.607,0.172,0.668-0.254
		c0.058-0.398,0.097-0.828,0.009-1.212c-0.147-0.644-0.385-1.27-0.624-1.887c-0.067-0.174-0.275-0.291-0.41-0.44
		c-0.089-0.101-0.251-0.241-0.228-0.316c0.052-0.167,0.176-0.34,0.32-0.437c0.062-0.041,0.283,0.067,0.37,0.164
		c0.731,0.82,1.141,1.791,1.259,2.877c0.043,0.402,0.035,0.816,0,1.22c-0.038,0.433-0.182,0.839-0.625,1.032
		c-0.456,0.198-0.863,0.036-1.223-0.238c-0.644-0.491-0.979-1.196-1.261-1.928c-0.116-0.301-0.201-0.615-0.331-1.021
		c-0.1,0.218-0.16,0.361-0.23,0.501c-0.508,1.011-1,2.031-1.537,3.026c-0.178,0.328-0.444,0.627-0.726,0.877
		c-0.439,0.391-0.942,0.208-0.949-0.373c-0.01-0.839,0.027-1.689,0.166-2.516c0.251-1.501,0.766-2.927,1.458-4.285
		c0.11-0.216,0.235-0.45,0.417-0.596c0.128-0.103,0.365-0.068,0.554-0.096c-0.007,0.156,0.04,0.342-0.028,0.464
		c-0.88,1.576-1.47,3.256-1.779,5.031c-0.096,0.554-0.118,1.121-0.174,1.683C48.521,265.922,48.58,265.936,48.639,265.949"/>
	<path fill="#FFFFFF" d="M103.227,261.481c-0.706,1.251-1.538,2.359-2.652,3.228c-0.285,0.222-0.616,0.409-0.955,0.53
		c-0.423,0.151-0.76-0.095-0.735-0.541c0.022-0.416,0.097-0.845,0.24-1.233c0.492-1.34,1.274-2.499,2.325-3.467
		c0.458-0.422,0.968-0.76,1.652-0.741c0-0.68,0.003-1.343-0.001-2.005c-0.003-0.519-0.049-1.038-0.008-1.552
		c0.015-0.19,0.186-0.421,0.354-0.529c0.142-0.091,0.4-0.083,0.566-0.017c0.076,0.03,0.092,0.311,0.071,0.47
		c-0.35,2.714-0.286,5.412,0.307,8.088c0.094,0.429,0.146,0.918,0.726,1.026c0.023,0.004,0.055,0.248,0.001,0.322
		c-0.219,0.309-0.704,0.311-0.953-0.034c-0.203-0.279-0.37-0.614-0.447-0.949C103.525,263.232,103.392,262.373,103.227,261.481
		 M99.612,264.463c0.043,0.026,0.086,0.052,0.128,0.077c0.176-0.115,0.37-0.211,0.524-0.35c0.976-0.887,1.776-1.915,2.408-3.071
		c0.11-0.201,0.197-0.424,0.242-0.646c0.025-0.125-0.021-0.309-0.107-0.396c-0.06-0.06-0.257-0.038-0.363,0.012
		c-0.182,0.085-0.356,0.203-0.507,0.338c-1.067,0.959-1.814,2.128-2.248,3.494C99.635,264.093,99.637,264.282,99.612,264.463"/>
	<path fill="#FFFFFF" d="M67.512,261.211c-0.567,1.429-1.111,2.797-1.654,4.165c-0.118,0.299-0.237,0.591-0.641,0.581
		c-0.271-0.006-0.411-0.131-0.394-0.403c0.113-1.77,0.224-3.538,0.346-5.307c0.084-1.21,0.188-2.419,0.281-3.63
		c0.043-0.568,0.175-0.758,0.623-0.88c0.338-0.092,0.454,0.007,0.408,0.365c-0.129,1-0.285,1.997-0.392,3
		c-0.174,1.626-0.318,3.254-0.388,4.916c0.062-0.147,0.125-0.294,0.187-0.441c0.502-1.21,0.994-2.424,1.514-3.626
		c0.085-0.196,0.264-0.391,0.45-0.495c0.352-0.199,0.473-0.092,0.494,0.313c0.043,0.842,0.046,1.692,0.181,2.521
		c0.094,0.582,0.343,1.147,0.585,1.692c0.207,0.466,0.379,0.479,0.835,0.248c0.103-0.052,0.248-0.021,0.373-0.03
		c-0.019,0.137,0.006,0.302-0.063,0.402c-0.328,0.476-1.088,0.573-1.464,0.121c-0.34-0.409-0.622-0.901-0.796-1.403
		C67.772,262.67,67.68,261.973,67.512,261.211"/>
	<path fill="#FFFFFF" d="M12.558,264.864c0.18,0.499,0.379,0.962,0.507,1.443c0.071,0.268,0.063,0.572,0.021,0.85
		c-0.066,0.435-0.361,0.562-0.75,0.361c-0.12-0.062-0.237-0.14-0.337-0.23c-0.616-0.559-1.231-1.119-1.833-1.692
		c-0.097-0.093-0.18-0.255-0.181-0.386c-0.012-1.664-0.007-3.329-0.005-4.994c0-0.048,0.024-0.096,0.06-0.223
		c1.163,1.155,2.637,1.973,2.962,3.729C13.124,264.382,13.009,264.692,12.558,264.864 M11.88,265.923
		c0.202-0.632-0.122-1.246-0.767-1.506C10.915,265.193,11.144,265.656,11.88,265.923 M11.877,263.626
		c0.149-0.594-0.204-1.231-0.79-1.465C10.963,263.033,11.169,263.428,11.877,263.626"/>
	<path fill="#FFFFFF" d="M5.574,258.935c0.2,0.948,0.395,1.876,0.589,2.804c-0.032,0.017-0.064,0.034-0.096,0.051
		c-0.43-0.477-1.107-0.726-1.184-1.524c-0.058-0.595-0.194-1.184-0.33-1.768c-0.047-0.205-0.197-0.387-0.299-0.58l-0.136,0.038v1.88
		c-0.558-0.39-1.135-0.662-1.094-1.488c0.067-1.349,0.017-2.703,0.019-4.054c0-0.157,0.019-0.314,0.035-0.574
		c0.275,0.239,0.482,0.405,0.674,0.587c0.553,0.526,1.133,1.028,1.639,1.597c0.542,0.609,0.803,1.356,0.79,2.185
		C6.171,258.598,6.087,258.72,5.574,258.935 M4.175,255.864c-0.148,0.728-0.047,0.997,0.513,1.371c0.072,0.048,0.216,0.1,0.25,0.068
		c0.066-0.061,0.117-0.188,0.104-0.274C4.958,256.496,4.63,256.143,4.175,255.864"/>
	<path fill="#FFFFFF" d="M111.816,263.513c0.619-1.136,1.231-2.275,1.863-3.405c0.171-0.306,0.371-0.608,0.616-0.854
		c0.113-0.112,0.369-0.082,0.56-0.116c0.023,0.175,0.102,0.362,0.06,0.52c-0.351,1.313-0.266,2.619,0.042,3.922
		c0.049,0.209,0.137,0.416,0.246,0.603c0.247,0.425,0.566,0.495,1,0.25c0.035-0.021,0.068-0.058,0.104-0.062
		c0.134-0.015,0.27-0.02,0.405-0.029c-0.042,0.155-0.036,0.363-0.135,0.457c-0.607,0.575-1.583,0.412-2.048-0.331
		c-0.402-0.644-0.517-1.374-0.573-2.11c-0.034-0.442-0.006-0.891-0.095-1.36c-0.533,1.055-1.067,2.109-1.598,3.165
		c-0.141,0.28-0.243,0.583-0.41,0.845c-0.091,0.145-0.292,0.328-0.424,0.313c-0.294-0.032-0.532-0.21-0.502-0.577
		c0.058-0.706,0.106-1.413,0.17-2.118c0.069-0.76,0.15-1.518,0.228-2.276c0.035-0.345,0.386-0.702,0.727-0.709
		c0.302-0.005,0.253,0.229,0.224,0.412c-0.128,0.807-0.269,1.612-0.397,2.419c-0.056,0.346-0.093,0.695-0.138,1.043
		C111.765,263.513,111.79,263.513,111.816,263.513"/>
	<path fill="#FFFFFF" d="M88.047,261.075c-0.101,0.187-0.206,0.37-0.3,0.559c-0.561,1.123-1.118,2.248-1.682,3.37
		c-0.094,0.188-0.159,0.437-0.469,0.323c-0.294-0.107-0.489-0.259-0.454-0.626c0.136-1.425,0.26-2.852,0.373-4.278
		c0.027-0.342,0.171-0.572,0.486-0.682c0.13-0.045,0.333-0.099,0.405-0.036c0.081,0.07,0.085,0.272,0.065,0.408
		c-0.152,1.012-0.32,2.021-0.481,3.03c-0.02,0.126-0.024,0.254,0.037,0.399c0.232-0.442,0.458-0.889,0.698-1.326
		c0.451-0.826,0.903-1.653,1.372-2.47c0.113-0.197,0.262-0.397,0.444-0.521c0.134-0.091,0.367-0.108,0.522-0.059
		c0.068,0.022,0.107,0.313,0.067,0.456c-0.362,1.3-0.275,2.593,0.017,3.886c0.042,0.185,0.106,0.369,0.189,0.539
		c0.274,0.562,0.606,0.646,1.159,0.343c0.117-0.064,0.287-0.032,0.432-0.044c-0.054,0.162-0.059,0.383-0.17,0.478
		c-0.601,0.51-1.496,0.387-1.949-0.261c-0.515-0.735-0.601-1.598-0.664-2.457c-0.025-0.334-0.004-0.671-0.004-1.007
		C88.109,261.092,88.079,261.083,88.047,261.075"/>
	<path fill="#FFFFFF" d="M8.468,262.58c-0.079-0.202-0.125-0.426-0.243-0.603c-0.258-0.384-0.558-0.74-0.829-1.116
		c-0.524-0.727-0.846-1.518-0.782-2.439c0.051-0.735,0.481-0.982,1.099-0.574c0.769,0.506,1.247,1.248,1.562,2.095
		c0.031,0.081-0.071,0.271-0.162,0.324c-0.147,0.086-0.344,0.21-0.482-0.058c-0.125-0.241-0.256-0.484-0.42-0.699
		c-0.123-0.161-0.303-0.278-0.458-0.415c-0.049,0.034-0.098,0.068-0.147,0.104c0.109,0.229,0.191,0.476,0.333,0.683
		c0.23,0.337,0.511,0.639,0.751,0.97c0.584,0.806,0.963,1.682,0.829,2.705c-0.083,0.634-0.474,0.851-1.002,0.518
		c-0.999-0.628-1.621-1.56-1.984-2.668c-0.023-0.071,0.084-0.244,0.169-0.281c0.175-0.077,0.368-0.169,0.516,0.107
		c0.217,0.405,0.47,0.792,0.732,1.171c0.083,0.119,0.243,0.186,0.368,0.277C8.369,262.646,8.419,262.612,8.468,262.58"/>
	<path fill="#FFFFFF" d="M79.196,262.65c0.038-1.157,0.262-1.992,0.839-2.694c0.368-0.448,0.803-0.793,1.449-0.588
		c0.049,0.015,0.108,0.003,0.162-0.004c1.113-0.132,1.919,0.364,2.316,1.426c0.521,1.394-0.17,3.336-1.453,4.089
		c-1.164,0.682-2.469,0.271-2.979-0.982C79.338,263.425,79.262,262.906,79.196,262.65 M83.328,262.021
		c-0.005-0.077,0.003-0.257-0.031-0.43c-0.138-0.708-0.394-1.337-1.146-1.612c-0.241-0.088-0.423-0.088-0.585,0.178
		c-0.066,0.109-0.377,0.209-0.451,0.151c-0.346-0.268-0.535-0.072-0.69,0.188c-0.131,0.22-0.244,0.461-0.306,0.708
		c-0.255,1.026-0.205,2.01,0.567,2.825c0.485,0.512,1.084,0.551,1.658,0.139C83.041,263.667,83.34,262.966,83.328,262.021"/>
	<path fill="#FFFFFF" d="M60.583,260.958c-0.377,0.234-0.688,0.423-0.995,0.618c-0.174,0.11-0.341,0.202-0.484-0.037
		c-0.133-0.224-0.059-0.386,0.151-0.511c0.351-0.21,0.693-0.438,1.053-0.631c0.238-0.127,0.32-0.295,0.315-0.557
		c-0.016-0.86-0.025-1.72-0.009-2.579c0.003-0.186,0.073-0.433,0.204-0.536c0.174-0.137,0.437-0.159,0.661-0.231
		c0.045,0.199,0.139,0.402,0.126,0.599c-0.051,0.774-0.137,1.547-0.206,2.32c-0.009,0.104-0.001,0.21-0.001,0.374
		c0.18-0.07,0.314-0.128,0.451-0.175c0.425-0.146,0.846-0.309,1.281-0.417c0.153-0.038,0.341,0.065,0.513,0.104
		c-0.076,0.15-0.116,0.347-0.237,0.439c-0.161,0.123-0.381,0.174-0.581,0.237c-0.141,0.045-0.297,0.043-0.437,0.09
		c-1.025,0.345-1.045,0.348-1.016,1.425c0.022,0.829,0.095,1.658,0.167,2.485c0.026,0.308,0.144,0.658,0.49,0.661
		c0.238,0.001,0.513-0.189,0.707-0.365c0.185-0.167,0.27-0.439,0.433-0.639c0.068-0.084,0.224-0.098,0.339-0.143
		c0.045,0.118,0.141,0.242,0.126,0.354c-0.087,0.677-0.946,1.434-1.632,1.464c-0.49,0.021-0.91-0.259-1.046-0.804
		c-0.134-0.539-0.201-1.098-0.258-1.652C60.639,262.257,60.624,261.657,60.583,260.958"/>
	<path fill="#FFFFFF" d="M38.963,263.212c0.118-1.423,0.317-2.668,1.101-3.734c0.278-0.377,0.64-0.633,1.124-0.661
		c0.551-0.032,0.858,0.245,0.848,0.799c-0.018,0.955-0.505,1.71-1.105,2.397c-0.24,0.275-0.526,0.514-0.807,0.749
		c-0.336,0.281-0.398,0.59-0.191,1.173c0.134,0.378,0.367,0.68,0.802,0.61c0.353-0.057,0.715-0.175,1.025-0.351
		c0.4-0.226,0.745-0.548,1.131-0.803c0.101-0.066,0.264-0.039,0.399-0.055c-0.012,0.139,0.03,0.328-0.044,0.405
		c-0.743,0.772-1.512,1.505-2.696,1.499c-0.652-0.004-1.104-0.311-1.323-0.901C39.078,263.938,39.027,263.5,38.963,263.212
		 M39.909,261.938c0.036,0.014,0.072,0.028,0.107,0.043c0.587-0.557,1.066-1.189,1.255-2.005c0.03-0.131-0.073-0.292-0.114-0.438
		c-0.137,0.068-0.344,0.103-0.398,0.212c-0.278,0.554-0.523,1.125-0.763,1.696C39.934,261.597,39.937,261.773,39.909,261.938"/>
	<path fill="#FFFFFF" d="M108.076,265.239c-1.129-0.003-1.591-0.348-1.823-1.118c-0.29-0.965-0.156-1.933,0.13-2.858
		c0.202-0.652,0.527-1.279,0.88-1.868c0.245-0.408,0.687-0.614,1.195-0.578c0.41,0.028,0.687,0.267,0.669,0.675
		c-0.016,0.387-0.076,0.79-0.214,1.149c-0.343,0.885-0.947,1.593-1.712,2.145c-0.46,0.332-0.259,0.729-0.164,1.104
		c0.091,0.359,0.313,0.699,0.728,0.65c0.391-0.047,0.792-0.183,1.141-0.369c0.393-0.209,0.724-0.531,1.099-0.778
		c0.103-0.068,0.267-0.046,0.403-0.064c-0.011,0.138,0.032,0.326-0.042,0.406C109.642,264.511,108.859,265.2,108.076,265.239
		 M107.043,261.99c0.637-0.539,1.131-1.162,1.335-1.965c0.037-0.142-0.057-0.317-0.09-0.477c-0.139,0.061-0.327,0.082-0.41,0.187
		C107.357,260.392,107.157,261.175,107.043,261.99"/>
	<path fill="#FFFFFF" d="M33.509,260.365c-0.018-0.467-0.074-0.956,0.431-1.227c0.139-0.074,0.366-0.135,0.472-0.07
		c0.095,0.059,0.129,0.306,0.105,0.456c-0.235,1.449-0.147,2.88,0.243,4.289c0.09,0.327,0.164,0.77,0.585,0.801
		c0.411,0.03,0.565-0.38,0.723-0.688c0.421-0.826,0.618-1.711,0.628-2.639c0.003-0.271-0.039-0.46-0.375-0.509
		c-0.29-0.043-0.393-0.381-0.165-0.552c0.198-0.148,0.497-0.253,0.735-0.226c0.163,0.019,0.397,0.281,0.422,0.46
		c0.068,0.479,0.133,0.991,0.032,1.454c-0.182,0.831-0.431,1.658-0.756,2.443c-0.24,0.577-0.693,1.049-1.416,0.973
		c-0.724-0.077-1.058-0.632-1.179-1.25c-0.24-1.226-0.396-2.467-0.588-3.702C33.439,260.375,33.474,260.37,33.509,260.365"/>
	<path fill="#FFFFFF" d="M119.432,259.705c-0.069,0.057-0.198,0.135-0.292,0.242c-0.959,1.1-1.536,2.35-1.397,3.841
		c0.024,0.254,0.176,0.633,0.361,0.699c0.222,0.08,0.608-0.035,0.806-0.203c0.422-0.358,0.77-0.804,1.143-1.218
		c0.155-0.172,0.285-0.368,0.451-0.527c0.062-0.058,0.206-0.074,0.292-0.046c0.053,0.018,0.104,0.156,0.096,0.234
		c-0.099,0.904-1.797,2.49-2.678,2.511c-0.771,0.018-1.232-0.332-1.298-1.104c-0.046-0.534-0.034-1.095,0.079-1.616
		c0.267-1.226,0.84-2.305,1.832-3.109c0.234-0.189,0.542-0.315,0.837-0.396c0.347-0.094,0.668,0.135,0.677,0.411
		c0.01,0.298-0.395,0.797-0.645,0.735C119.588,260.134,119.536,259.897,119.432,259.705"/>
	<path fill="#FFFFFF" d="M77.244,259.729c-0.052,0.043-0.177,0.123-0.271,0.229c-0.93,1.049-1.473,2.252-1.427,3.678
		c0.011,0.343,0.026,0.727,0.389,0.881c0.355,0.152,0.678-0.051,0.918-0.302c0.423-0.441,0.814-0.915,1.218-1.375
		c0.081-0.092,0.144-0.21,0.242-0.273c0.089-0.057,0.215-0.054,0.325-0.077c0.022,0.11,0.097,0.247,0.058,0.328
		c-0.481,0.987-1.1,1.871-2.147,2.317c-0.939,0.4-1.763-0.11-1.83-1.141c-0.118-1.835,0.576-3.358,1.931-4.575
		c0.23-0.207,0.566-0.328,0.875-0.409c0.331-0.087,0.619,0.137,0.637,0.41c0.02,0.301-0.375,0.795-0.633,0.738
		C77.424,260.136,77.362,259.918,77.244,259.729"/>
	<path fill="#FFFFFF" d="M30.065,261.397c0.026-0.395,0.05-0.789,0.078-1.184c0.027-0.376,0.194-0.659,0.575-0.753
		c0.129-0.032,0.312-0.025,0.408,0.046c0.067,0.052,0.067,0.253,0.033,0.369c-0.382,1.298-0.334,2.615-0.173,3.935
		c0.051,0.417,0.132,0.828,0.669,0.958c0.282,0.068,0.176,0.293,0.009,0.433c-0.414,0.345-1.009,0.191-1.188-0.367
		c-0.169-0.526-0.267-1.086-0.315-1.639c-0.053-0.595-0.012-1.197-0.012-1.797C30.121,261.398,30.093,261.398,30.065,261.397"/>
	<path fill="#FFFFFF" d="M57.327,259.721c-0.086,0.509-0.24,1.017-0.245,1.525c-0.009,0.936,0.054,1.872,0.122,2.806
		c0.024,0.334,0.181,0.615,0.577,0.7c0.278,0.059,0.25,0.25,0.077,0.422c-0.353,0.352-0.949,0.26-1.164-0.227
		c-0.162-0.367-0.282-0.778-0.307-1.177c-0.068-1.113-0.1-2.231-0.099-3.348c0.001-0.619,0.231-0.896,0.663-0.99
		C57.198,259.378,57.355,259.444,57.327,259.721"/>
	<path fill="#FFFFFF" d="M57.023,255.954c0.344,0.093,0.411,0.219,0.374,0.484c-0.062,0.438-0.061,0.886-0.12,1.325
		c-0.019,0.142-0.159,0.39-0.216,0.382c-0.17-0.022-0.451-0.129-0.467-0.236c-0.073-0.49-0.117-0.996-0.07-1.486
		C56.54,256.252,56.848,256.109,57.023,255.954"/>
	<path fill="#FFFFFF" d="M30.293,257.062c0.017-0.262,0.007-0.456,0.045-0.641c0.054-0.261,0.404-0.443,0.683-0.374
		c0.333,0.084,0.191,0.321,0.173,0.528c-0.034,0.375-0.067,0.751-0.065,1.127c0.001,0.225,0.006,0.419-0.264,0.466
		c-0.283,0.049-0.443-0.089-0.481-0.365C30.345,257.533,30.317,257.263,30.293,257.062"/>
	<path fill="#FFFFFF" d="M96.245,257.078c0-0.177-0.012-0.354,0.002-0.53c0.028-0.346,0.44-0.615,0.742-0.457
		c0.093,0.05,0.146,0.26,0.142,0.395c-0.012,0.443-0.044,0.889-0.101,1.329c-0.017,0.128-0.144,0.346-0.216,0.344
		c-0.16-0.004-0.414-0.085-0.457-0.199c-0.101-0.271-0.102-0.582-0.144-0.876C96.224,257.081,96.234,257.08,96.245,257.078"/>
</g>
</svg>
