<?xml version="1.0" encoding="utf-8"?>
<!-- Generator: Adobe Illustrator 16.0.4, SVG Export Plug-In . SVG Version: 6.00 Build 0)  -->
<!DOCTYPE svg PUBLIC "-//W3C//DTD SVG 1.1//EN" "http://www.w3.org/Graphics/SVG/1.1/DTD/svg11.dtd">
<svg version="1.1" id="Layer_1" xmlns="http://www.w3.org/2000/svg" xmlns:xlink="http://www.w3.org/1999/xlink" x="0px" y="0px"
	 width="175px" height="54.026px" viewBox="0 0 175 54.026" enable-background="new 0 0 175 54.026" xml:space="preserve">
<path fill="#E0047F" d="M5.734,11.644l3.851-6.68l7.713-0.002l3.857,6.677l-1.225,2.123l1.252,2.363l-2.673,0.1l-1.209,2.096
	l-7.709,0.002L5.734,11.644z M6.722,0L0,11.642l6.722,11.642h13.442l6.722-11.642L20.164,0H6.722z"/>
<g>
	<defs>
		<rect id="SVGID_1_" y="24.284" width="175" height="29.742"/>
	</defs>
	<clipPath id="SVGID_2_">
		<use xlink:href="#SVGID_1_"  overflow="visible"/>
	</clipPath>
	<path clip-path="url(#SVGID_2_)" fill="#E0047F" d="M122.395,42.895H119.5V28.169c-0.011,0.006-0.064,0.013-0.084,0.043
		c-2.598,3.838-5.191,7.68-7.791,11.517c-0.279,0.411-0.919,0.423-1.213,0.025c-2.449-3.317-4.899-6.635-7.332-9.966
		c-0.35-0.479-0.601-1.029-0.949-1.635v14.762c-0.794,0-1.557,0.005-2.32-0.001c-1.094-0.009-2.189-0.041-3.283-0.031
		c-0.362,0.003-0.551-0.125-0.71-0.443c-0.614-1.224-1.269-2.427-1.882-3.65c-0.183-0.366-0.4-0.525-0.826-0.524
		c-3.835,0.016-7.67,0.016-11.505,0.001c-0.419-0.001-0.647,0.142-0.833,0.513c-0.619,1.24-1.281,2.459-1.904,3.697
		c-0.154,0.307-0.345,0.409-0.68,0.405c-1.488-0.016-2.979,0.006-4.468-0.02c-0.242-0.005-0.539-0.12-0.714-0.286
		c-2.327-2.197-4.631-4.419-6.961-6.613c-0.211-0.197-0.562-0.336-0.854-0.343c-1.438-0.034-2.875-0.018-4.313-0.015
		c-0.659,0-0.679,0.02-0.68,0.705c-0.003,1.969-0.016,3.938,0.009,5.905c0.007,0.512-0.135,0.709-0.665,0.67
		c-0.596-0.045-1.198-0.032-1.796-0.003c-0.424,0.02-0.572-0.13-0.567-0.556c0.017-1.626,0.007-3.253,0.007-4.88
		c0-3.32,0-6.643-0.001-9.963c-0.001-0.676-0.019-0.692-0.691-0.693c-2.431-0.002-4.862,0.012-7.293-0.01
		c-0.515-0.004-0.667,0.151-0.665,0.673c0.02,4.913,0.012,9.827,0.012,14.74c0,0.68-0.002,0.68-0.664,0.681
		c-0.6,0.001-1.201-0.026-1.798,0.009c-0.45,0.026-0.591-0.121-0.586-0.577c0.022-1.969,0.01-3.938,0.01-5.906
		c0-2.979-0.012-5.958,0.011-8.937c0.004-0.517-0.152-0.686-0.667-0.682c-2.499,0.02-4.999,0.001-7.499,0.021
		c-0.244,0.002-0.557,0.107-0.719,0.278c-1.762,1.844-3.493,3.716-5.251,5.563c-0.278,0.293-0.274,0.459,0.014,0.74
		c3.083,3.017,6.154,6.046,9.228,9.072c0.107,0.105,0.205,0.221,0.389,0.418c-0.98,0-1.869-0.08-2.738,0.02
		c-1.203,0.139-2.016-0.287-2.812-1.2c-1.877-2.153-3.881-4.196-5.83-6.286c-0.127-0.137-0.226-0.302-0.383-0.515
		c-0.302,0.331-0.521,0.563-0.73,0.804c-1.963,2.263-3.928,4.523-5.879,6.796c-0.232,0.27-0.467,0.397-0.83,0.39
		c-1.089-0.021-2.179-0.008-3.391-0.008c3.045-3.231,6.006-6.375,9.018-9.57c-3.038-2.98-6.036-5.924-9.141-8.97
		c0.787,0,1.443-0.007,2.099,0.001c0.784,0.012,1.659-0.174,2.326,0.115c0.649,0.282,1.091,1.053,1.616,1.615
		c1.516,1.628,3.028,3.26,4.543,4.889c0.104,0.111,0.219,0.211,0.385,0.369c0.275-0.307,0.537-0.592,0.791-0.883
		c1.67-1.906,3.342-3.809,4.999-5.725c0.232-0.268,0.468-0.389,0.829-0.389c12.156,0.008,24.311,0.006,36.467,0.013
		c0.424,0.001,0.855,0.054,1.271,0.142c1.48,0.312,2.309,1.246,2.348,2.761c0.047,1.813,0.053,3.63,0.002,5.443
		c-0.051,1.771-1.181,2.804-3.085,2.894c-0.923,0.043-1.849,0.019-2.772,0.023c-0.184,0.002-0.367,0-0.551,0
		c-0.025,0.051-0.051,0.102-0.077,0.152c2.251,1.912,4.503,3.826,6.81,5.787c0.135-0.201,0.246-0.344,0.332-0.499
		c2.947-5.372,5.896-10.742,8.826-16.123c0.235-0.433,0.488-0.631,0.991-0.597c0.665,0.045,1.337,0.039,2.002,0
		c0.471-0.026,0.733,0.135,0.965,0.555c1.884,3.417,3.791,6.82,5.691,10.229c1.334,2.393,2.668,4.783,4.003,7.174
		c0.058,0.103,0.126,0.199,0.287,0.288V24.296c0.876,0,1.676-0.02,2.473,0.017c0.156,0.007,0.334,0.208,0.449,0.359
		c2.735,3.639,5.464,7.283,8.194,10.927c0.162,0.217,0.326,0.432,0.532,0.705c0.248-0.342,0.469-0.637,0.68-0.938
		c2.48-3.549,4.963-7.096,7.43-10.654c0.224-0.322,0.458-0.441,0.842-0.428c0.785,0.027,1.57,0.009,2.4,0.009V42.895z
		 M65.991,33.261c1.712,0,3.424,0.014,5.136-0.005c1.305-0.015,1.811-0.538,1.816-1.817c0.004-0.908,0.002-1.814,0.001-2.723
		c-0.001-1.49-0.393-1.914-1.88-2.037c-0.086-0.008-0.171-0.012-0.256-0.012c-3.339,0-6.677,0.006-10.015-0.008
		c-0.443-0.002-0.606,0.145-0.603,0.592c0.016,1.797,0.021,3.594-0.002,5.391c-0.007,0.51,0.191,0.635,0.666,0.629
		C62.567,33.248,64.279,33.262,65.991,33.261 M87.371,26.39c-1.707,3.23-3.344,6.33-5.023,9.511h10.044
		C90.716,32.727,89.079,29.626,87.371,26.39"/>
	<path clip-path="url(#SVGID_2_)" fill="#E0047F" d="M160.073,34.47v1.084c0,1.387,0.017,2.773-0.01,4.159
		c-0.009,0.45,0.122,0.584,0.577,0.583c4.555-0.016,9.107-0.01,13.662-0.01H175v2.585h-35.279V24.328h3.147v15.874h14.018V24.335
		h18.038c0,0.739,0.008,1.484-0.012,2.229c-0.002,0.085-0.149,0.212-0.25,0.237c-0.161,0.042-0.34,0.018-0.511,0.018
		c-4.485,0-8.97,0.008-13.456-0.011c-0.494-0.002-0.646,0.134-0.633,0.632c0.033,1.3,0.027,2.602,0.002,3.902
		c-0.01,0.441,0.107,0.588,0.57,0.584c2.637-0.021,5.273,0.002,7.908-0.021c0.506-0.004,0.669,0.158,0.626,0.645
		c-0.036,0.408-0.007,0.821-0.007,1.232c-0.002,0.685-0.002,0.687-0.666,0.688c-2.568,0-5.137,0-7.704,0H160.073z"/>
	<path clip-path="url(#SVGID_2_)" fill="#E0047F" d="M0.012,33.582c0-2.876,0.011-5.752-0.011-8.628
		c-0.004-0.499,0.143-0.632,0.635-0.63c5.529,0.017,11.059,0.018,16.589-0.001c0.533-0.002,0.701,0.167,0.658,0.675
		c-0.035,0.408-0.025,0.822-0.003,1.231c0.021,0.401-0.138,0.537-0.538,0.534c-1.764-0.017-3.527-0.007-5.29-0.007
		c-2.791,0-5.582,0.011-8.372-0.01c-0.497-0.003-0.65,0.153-0.64,0.646c0.029,1.3,0.009,2.602,0.01,3.902
		c0,0.718,0.002,0.721,0.702,0.721c2.534,0.002,5.067,0,7.601,0.002c0.748,0,0.748,0.001,0.749,0.77
		c0,0.343-0.021,0.687,0.005,1.027c0.031,0.422-0.13,0.567-0.557,0.564c-2.174-0.016-4.349-0.008-6.523-0.008
		c-0.497,0-0.993,0.012-1.489-0.002c-0.341-0.009-0.495,0.111-0.493,0.476c0.011,1.678,0.017,3.355-0.002,5.033
		c-0.006,0.515,0.31,0.474,0.644,0.474c4.502-0.002,9.005-0.001,13.507-0.001c0.154,0,0.309,0.009,0.463,0
		c0.288-0.017,0.396,0.118,0.391,0.399c-0.01,0.564-0.016,1.13,0.002,1.694c0.012,0.346-0.14,0.438-0.461,0.436
		c-1.112-0.013-2.225-0.005-3.338-0.005c-4.537,0-9.074-0.007-13.61,0.011C0.158,42.886-0.004,42.769,0,42.261
		C0.023,39.369,0.012,36.475,0.012,33.582"/>
	<rect x="129.51" y="24.325" clip-path="url(#SVGID_2_)" fill="#E0047F" width="3.109" height="18.552"/>
	<path clip-path="url(#SVGID_2_)" fill="#E0047F" d="M17.191,54.009c-0.89,0-1.779,0.006-2.67-0.001
		c-0.88-0.008-1.288-0.283-1.322-1.15c-0.062-1.552-0.039-3.109,0.023-4.662c0.027-0.688,0.375-0.984,1.076-0.996
		c1.915-0.029,3.832-0.029,5.748,0.005c0.711,0.013,1.07,0.405,1.09,1.172c0.035,1.471,0.037,2.944,0.001,4.415
		c-0.021,0.852-0.454,1.209-1.327,1.217S18.064,54.009,17.191,54.009 M14.409,52.97h5.464v-4.802h-5.464V52.97z"/>
	<path clip-path="url(#SVGID_2_)" fill="#E0047F" d="M142.77,54.009c-0.872,0-1.745,0.005-2.617-0.001
		c-0.917-0.007-1.34-0.333-1.371-1.229c-0.049-1.452-0.046-2.909-0.002-4.362c0.027-0.864,0.404-1.219,1.26-1.232
		c1.812-0.028,3.627-0.027,5.441-0.003c0.84,0.012,1.223,0.332,1.256,1.175c0.058,1.485,0.061,2.978-0.002,4.463
		c-0.037,0.889-0.447,1.183-1.346,1.188C144.516,54.014,143.643,54.009,142.77,54.009 M140.022,52.98h5.476v-4.808h-5.476V52.98z"/>
	<path clip-path="url(#SVGID_2_)" fill="#E0047F" d="M51.437,53.989h-1.112v-5.098c-0.035-0.009-0.068-0.017-0.103-0.025
		c-0.675,0.977-1.351,1.954-2.025,2.932c-0.204,0.295-0.401,0.596-0.61,0.887c-0.285,0.396-0.448,0.401-0.732,0.012
		c-0.928-1.27-1.848-2.544-2.772-3.815c-0.016-0.021-0.056-0.025-0.117-0.051v5.111c-0.077,0.027-0.123,0.056-0.171,0.059
		c-0.861,0.053-0.861,0.053-0.861-0.821c0-1.796-0.008-3.592,0.009-5.388c0.002-0.203,0.109-0.564,0.208-0.579
		c0.327-0.048,0.707-0.184,0.984,0.193c0.697,0.95,1.412,1.89,2.12,2.833c0.308,0.409,0.617,0.817,0.964,1.276
		c0.126-0.16,0.231-0.284,0.324-0.417c0.824-1.176,1.646-2.354,2.47-3.53c0.247-0.353,0.892-0.55,1.255-0.37
		c0.082,0.041,0.164,0.182,0.164,0.276C51.439,49.625,51.437,51.776,51.437,53.989"/>
	<path clip-path="url(#SVGID_2_)" fill="#E0047F" d="M173.431,49.105c-0.027-0.334-0.05-0.604-0.075-0.914h-4.646v1.759
		c0.169,0.008,0.351,0.022,0.53,0.023c1.267,0.003,2.533-0.007,3.8,0.006c1.091,0.011,1.437,0.347,1.484,1.436
		c0.021,0.494,0.021,0.992-0.011,1.485c-0.042,0.688-0.424,1.088-1.113,1.098c-1.643,0.023-3.285,0.028-4.928,0
		c-0.838-0.015-1.422-0.911-1.148-1.691c0.026-0.077,0.125-0.157,0.207-0.181c0.275-0.08,0.558-0.135,0.894-0.213
		c0.021,0.382,0.04,0.713,0.063,1.111c0.416,0,0.805,0,1.194,0c1.095,0,2.19-0.011,3.285,0.006c0.355,0.006,0.492-0.11,0.476-0.471
		c-0.023-0.491-0.006-0.984-0.006-1.528c-0.664,0-1.26,0.001-1.854,0c-0.908-0.001-1.814,0.013-2.722-0.008
		c-0.819-0.02-1.205-0.379-1.254-1.182c-0.033-0.544-0.028-1.095,0.016-1.639c0.05-0.623,0.362-0.976,0.974-0.989
		c1.606-0.036,3.216-0.047,4.822,0.003c0.746,0.022,1.207,0.706,1.016,1.423C174.306,49.125,173.812,48.965,173.431,49.105"/>
	<path clip-path="url(#SVGID_2_)" fill="#E0047F" d="M32.104,51.537c0.95-1.355,1.852-2.644,2.754-3.931
		c0.279-0.398,0.807-0.597,1.232-0.406c0.111,0.05,0.192,0.294,0.193,0.449c0.014,1.661,0.01,3.321,0.01,4.981
		c0,0.439,0,0.879,0,1.349h-1.072v-5.31c-0.885,1.288-1.684,2.45-2.482,3.611c-0.64,0.931-0.641,0.931-1.307,0.025
		c-0.832-1.13-1.662-2.259-2.557-3.476v5.139h-1.03c-0.009-0.168-0.028-0.349-0.028-0.528c-0.002-1.883-0.008-3.766,0.008-5.648
		c0.002-0.204,0.1-0.564,0.199-0.582c0.348-0.059,0.735-0.161,1.021,0.236c0.648,0.903,1.327,1.785,1.994,2.675
		C31.377,50.573,31.717,51.022,32.104,51.537"/>
	<path clip-path="url(#SVGID_2_)" fill="#E0047F" d="M159.814,52.25c0-1.5,0.017-3.033-0.011-4.565
		c-0.008-0.462,0.187-0.531,0.577-0.525c0.373,0.006,0.596,0.033,0.59,0.514c-0.026,1.967-0.011,3.934-0.012,5.901
		c-0.001,0.117-0.016,0.234-0.024,0.364c-0.425,0.156-0.742,0.052-1.068-0.246c-1.79-1.636-3.597-3.253-5.422-4.898v5.173h-1.065
		v-6.735c0.465-0.157,0.814-0.018,1.164,0.299C156.301,49.124,158.075,50.697,159.814,52.25"/>
	<path clip-path="url(#SVGID_2_)" fill="#E0047F" d="M73.393,48.802v5.164h-1.062v-6.867c0.351,0.103,0.728,0.105,0.944,0.294
		c1.847,1.602,3.664,3.237,5.494,4.865v-5.013c0.09-0.028,0.15-0.061,0.213-0.065c0.929-0.073,0.929-0.072,0.929,0.861
		c0.001,1.779,0.001,3.559,0.001,5.338c0,0.185-0.001,0.37-0.001,0.556c-0.455,0.15-0.776,0.061-1.104-0.241
		C77.029,52.066,75.232,50.459,73.393,48.802"/>
	<path clip-path="url(#SVGID_2_)" fill="#E0047F" d="M100.1,49.629v-1.447h-4.642v4.842h1.024h2.567c1.042,0,1.042,0,1.044-1.021
		c0-0.216,0-0.432,0-0.703c0.439,0.094,0.787,0.167,1.169,0.247c0,0.491,0.04,0.971-0.01,1.44c-0.07,0.667-0.45,1.005-1.139,1.013
		c-1.574,0.019-3.149,0.02-4.724-0.001c-0.697-0.009-1.091-0.314-1.115-1.02c-0.055-1.603-0.048-3.21,0.004-4.812
		c0.021-0.638,0.363-0.944,0.998-0.958c1.658-0.035,3.318-0.031,4.977,0.002c0.602,0.013,0.88,0.33,0.996,0.921
		c0.021,0.101,0.025,0.204,0.029,0.307C101.334,49.534,101.299,49.571,100.1,49.629"/>
	<path clip-path="url(#SVGID_2_)" fill="#E0047F" d="M6.035,51.37c0.104-0.026,0.122-0.036,0.136-0.033
		c1.257,0.262,1.053-0.031,1.039,1.412c-0.009,0.905-0.406,1.255-1.32,1.26c-1.455,0.007-2.91,0.007-4.365-0.001
		c-0.945-0.005-1.342-0.402-1.347-1.349c-0.007-1.387-0.008-2.773,0-4.159c0.005-0.897,0.372-1.303,1.272-1.319
		c1.506-0.027,3.013-0.026,4.519,0.001c0.867,0.015,1.191,0.37,1.248,1.232c0.073,1.108,0.073,1.108-1.156,1.239v-1.457H1.425
		c-0.017,0.108-0.055,0.236-0.055,0.364c-0.004,1.336,0,2.671-0.005,4.006c-0.001,0.268,0.025,0.465,0.376,0.462
		c1.335-0.012,2.67-0.005,4.005-0.01c0.082,0,0.163-0.035,0.289-0.064V51.37z"/>
	<path clip-path="url(#SVGID_2_)" fill="#E0047F" d="M59.366,47.17v5.818h4.915v-1.662c0-1.215,0.021-2.43-0.01-3.644
		c-0.012-0.466,0.191-0.547,0.58-0.519c0.334,0.024,0.683-0.084,0.673,0.484c-0.028,1.642,0.003,3.284-0.016,4.927
		c-0.013,1.065-0.413,1.432-1.487,1.434c-1.473,0.002-2.943,0.004-4.414-0.001c-0.976-0.003-1.371-0.332-1.395-1.299
		c-0.041-1.71-0.018-3.421-0.033-5.131c-0.003-0.315,0.119-0.432,0.424-0.411C58.837,47.182,59.072,47.17,59.366,47.17"/>
	<path clip-path="url(#SVGID_2_)" fill="#E0047F" d="M114.873,54.006c-0.432,0-0.787,0.027-1.135-0.015
		c-0.127-0.016-0.306-0.178-0.342-0.307c-0.33-1.183-1.121-1.479-2.267-1.345c-0.843,0.098-1.707,0.031-2.562,0.013
		c-0.313-0.007-0.521,0.072-0.632,0.382c-0.057,0.159-0.157,0.302-0.237,0.453c-0.473,0.904-0.473,0.904-1.581,0.779
		c0.063-0.147,0.111-0.287,0.181-0.414c1.082-1.977,2.186-3.942,3.238-5.936c0.24-0.455,0.563-0.445,0.965-0.456
		c0.391-0.011,0.646,0.07,0.857,0.458c1.059,1.951,2.154,3.882,3.235,5.82C114.684,53.598,114.756,53.765,114.873,54.006
		 M112.176,51.388c-0.595-1.121-1.153-2.177-1.758-3.318c-0.614,1.165-1.168,2.217-1.748,3.318H112.176z"/>
	<path clip-path="url(#SVGID_2_)" fill="#E0047F" d="M121.717,48.138h-3.061v-0.93c0.161-0.014,0.324-0.037,0.488-0.037
		c2.119-0.003,4.238-0.003,6.357-0.001c0.538,0,0.731,0.255,0.544,0.764c-0.038,0.104-0.251,0.199-0.387,0.203
		c-0.7,0.021-1.401,0.01-2.103,0.011c-0.183,0-0.365,0-0.611,0v5.818h-1.229V48.138z"/>
	<path clip-path="url(#SVGID_2_)" fill="#E0047F" d="M132.273,53.989h-1.175c-0.011-0.213-0.03-0.41-0.03-0.607
		c-0.002-1.796-0.002-3.592-0.001-5.388c0-0.861,0-0.862,0.882-0.821c0.099,0.005,0.197,0.025,0.324,0.042V53.989z"/>
	<path clip-path="url(#SVGID_2_)" fill="#E0047F" d="M87.59,47.218v6.755h-1.124c-0.012-0.2-0.032-0.397-0.032-0.595
		c-0.003-1.798-0.002-3.596-0.002-5.393c0-0.865,0-0.866,0.886-0.812C87.399,47.179,87.48,47.2,87.59,47.218"/>
</g>
</svg>
